<svg width="14" height="14" viewBox="0 0 14 14" fill="none" xmlns="http://www.w3.org/2000/svg">
<g id="icon-wrapper">
<g id="Union">
<path d="M3.68714 7.50048H6.06214V9.87547C6.06214 9.94423 6.11839 10.0005 6.18714 10.0005H6.93714C7.00589 10.0005 7.06214 9.94423 7.06214 9.87547V7.50048H9.43714C9.50589 7.50048 9.56214 7.44422 9.56214 7.37547V6.62547C9.56214 6.55672 9.50589 6.50047 9.43714 6.50047H7.06214V4.12547C7.06214 4.05672 7.00589 4.00047 6.93714 4.00047H6.18714C6.11839 4.00047 6.06214 4.05672 6.06214 4.12547V6.50047H3.68714C3.61839 6.50047 3.56214 6.55672 3.56214 6.62547V7.37547C3.56214 7.44422 3.61839 7.50048 3.68714 7.50048Z" fill="#262626"/>
<path d="M12.3125 0.75H0.8125C0.535938 0.75 0.3125 0.973438 0.3125 1.25V12.75C0.3125 13.0266 0.535938 13.25 0.8125 13.25H12.3125C12.5891 13.25 12.8125 13.0266 12.8125 12.75V1.25C12.8125 0.973438 12.5891 0.75 12.3125 0.75ZM11.6875 12.125H1.4375V1.875H11.6875V12.125Z" fill="#262626"/>
</g>
</g>
</svg>
