<svg width="14" height="14" viewBox="0 0 14 14" fill="none" xmlns="http://www.w3.org/2000/svg">
<g id="icon-wrapper">
<g id="Union">
<path d="M3.68714 7.49905H9.43714C9.50589 7.49905 9.56214 7.4428 9.56214 7.37405V6.62405C9.56214 6.5553 9.50589 6.49905 9.43714 6.49905H3.68714C3.61839 6.49905 3.56214 6.5553 3.56214 6.62405V7.37405C3.56214 7.4428 3.61839 7.49905 3.68714 7.49905Z" fill="#262626"/>
<path d="M12.3125 0.75H0.8125C0.535938 0.75 0.3125 0.973438 0.3125 1.25V12.75C0.3125 13.0266 0.535938 13.25 0.8125 13.25H12.3125C12.5891 13.25 12.8125 13.0266 12.8125 12.75V1.25C12.8125 0.973438 12.5891 0.75 12.3125 0.75ZM11.6875 12.125H1.4375V1.875H11.6875V12.125Z" fill="#262626"/>
</g>
</g>
</svg>
