<svg width="139" height="28" viewBox="0 0 139 28" fill="none" xmlns="http://www.w3.org/2000/svg">
<g clip-path="url(#clip0_4118_162430)">
<path d="M3.43153 4.19987C1.27548 6.54117 0.13538 9.48177 0.0112305 12.4568L5.85018 10.0382L3.43153 4.19922V4.19987Z" fill="#F152D9"/>
<path d="M4.19987 3.43153L10.0388 5.85018L12.4568 0.0112305C9.48177 0.13473 6.54052 1.27483 4.19922 3.43153H4.19987Z" fill="#F268DD"/>
<path d="M13.5435 0.0112305L15.9621 5.85018L21.8011 3.43153C19.4591 1.27548 16.5185 0.13538 13.5435 0.0112305Z" fill="#ED27CF"/>
<path d="M13.5434 0.0112125C13.1813 -0.0037375 12.8193 -0.0037375 12.4572 0.0112125L10.0386 5.85016H15.962L13.5434 0.0112125Z" fill="#F693E7"/>
<path d="M5.85016 10.0387L0.0112125 12.4567C-0.0037375 12.8188 -0.0037375 13.1808 0.0112125 13.5429L5.85016 15.9615V10.0381V10.0387Z" fill="#F47DE2"/>
<path d="M10.0384 5.8498L4.19945 3.43115C3.93295 3.6762 3.67685 3.93295 3.43115 4.19945L5.8498 10.0384L10.0384 5.8498Z" fill="#F8A9EC"/>
<path d="M5.85018 15.9615L0.0112305 13.5435C0.13473 16.5185 1.27483 19.4598 3.43153 21.8011L5.85018 15.9621V15.9615Z" fill="#9D49F4"/>
<path d="M20.15 10.0384L22.5687 4.19945C22.3236 3.93295 22.0669 3.67685 21.8004 3.43115L15.9614 5.8498L20.15 10.0384Z" fill="#CEA4F9"/>
<path d="M20.1499 10.0387L25.9889 12.4573C25.8654 9.48226 24.7253 6.54101 22.5686 4.19971L20.1499 10.0387Z" fill="#9D49F4"/>
<path d="M5.8498 15.9614L3.43115 21.8004C3.6762 22.0669 3.93295 22.323 4.19945 22.5687L10.0384 20.15L5.8498 15.9614Z" fill="#CEA4F9"/>
<path d="M22.5686 21.8006C24.7253 19.4593 25.8654 16.5187 25.9889 13.543L20.1499 15.9616L22.5686 21.8006Z" fill="#7189FF"/>
<path d="M10.0387 20.1499L4.19971 22.5686C6.54101 24.7253 9.48161 25.8654 12.4573 25.9889L10.0387 20.1499Z" fill="#617CFF"/>
<path d="M25.9889 12.4567L20.1499 10.0381V15.9615L25.9889 13.5429C26.0038 13.1808 26.0038 12.8188 25.9889 12.4567Z" fill="#91A4FF"/>
<path d="M12.4567 25.9889C12.8188 26.0038 13.1808 26.0038 13.5429 25.9889L15.9615 20.1499H10.0381L12.4567 25.9889Z" fill="#7ECDF2"/>
<path d="M15.9616 20.1499L13.543 25.9889C16.518 25.8654 19.4593 24.7253 21.8006 22.5686L15.9616 20.1499Z" fill="#46B7EC"/>
<path d="M15.9614 20.15L21.8004 22.5687C22.0669 22.3236 22.323 22.0669 22.5687 21.8004L20.15 15.9614L15.9614 20.15Z" fill="#A2DBF5"/>
</g>
<path d="M31.104 12.672C31.104 11.12 31.368 9.688 31.896 8.376C32.44 7.048 33.176 5.904 34.104 4.944C35.032 3.984 36.128 3.24 37.392 2.712C38.656 2.168 40.024 1.904 41.496 1.92C42.2 1.936 42.904 2.032 43.608 2.208C44.328 2.368 45.016 2.6 45.672 2.904C46.344 3.208 46.96 3.576 47.52 4.008C48.096 4.44 48.608 4.928 49.056 5.472L47.976 6.624C47.624 7.008 47.192 7.216 46.68 7.248C46.168 7.28 45.696 7.128 45.264 6.792C44.672 6.392 44.072 6.072 43.464 5.832C42.856 5.592 42.2 5.472 41.496 5.472C40.488 5.488 39.576 5.68 38.76 6.048C37.96 6.416 37.28 6.92 36.72 7.56C36.176 8.2 35.76 8.952 35.472 9.816C35.184 10.68 35.04 11.632 35.04 12.672C35.04 13.776 35.208 14.76 35.544 15.624C35.88 16.488 36.336 17.224 36.912 17.832C37.488 18.424 38.168 18.88 38.952 19.2C39.752 19.52 40.608 19.68 41.52 19.68C42.272 19.68 42.984 19.568 43.656 19.344C44.328 19.104 44.896 18.776 45.36 18.36C45.808 17.912 46.288 17.68 46.8 17.664C47.328 17.648 47.776 17.816 48.144 18.168L49.176 19.248C48.728 19.904 48.216 20.48 47.64 20.976C47.08 21.456 46.464 21.864 45.792 22.2C45.12 22.536 44.416 22.784 43.68 22.944C42.96 23.12 42.24 23.208 41.52 23.208C39.984 23.208 38.576 22.936 37.296 22.392C36.016 21.848 34.92 21.104 34.008 20.16C33.096 19.2 32.384 18.08 31.872 16.8C31.36 15.504 31.104 14.128 31.104 12.672ZM49.9024 27.552V26.544C49.9024 26.08 50.0064 25.664 50.2144 25.296C50.4384 24.928 50.7504 24.64 51.1504 24.432C52.1904 23.888 52.9904 23.136 53.5504 22.176C54.1264 21.232 54.4144 20.024 54.4144 18.552V6.024H49.9984V4.68C49.9984 4.072 50.1984 3.576 50.5984 3.192C50.9984 2.792 51.4704 2.592 52.0144 2.592H61.6624V3.912C61.6624 4.488 61.4544 4.984 61.0384 5.4C60.6224 5.816 60.1024 6.024 59.4784 6.024H58.1824V18.816C58.1824 20.048 57.9424 21.136 57.4624 22.08C56.9984 23.024 56.3824 23.848 55.6144 24.552C54.8464 25.256 53.9664 25.848 52.9744 26.328C51.9824 26.824 50.9584 27.232 49.9024 27.552ZM70.3155 12.624C70.3155 11.104 70.5715 9.696 71.0835 8.4C71.5955 7.088 72.3075 5.96 73.2195 5.016C74.1315 4.056 75.2355 3.304 76.5315 2.76C77.8275 2.2 79.2675 1.92 80.8515 1.92C82.4515 1.92 83.8995 2.2 85.1955 2.76C86.4915 3.304 87.5955 4.056 88.5075 5.016C89.4195 5.96 90.1235 7.088 90.6195 8.4C91.1315 9.696 91.3875 11.104 91.3875 12.624C91.3875 14.128 91.1315 15.536 90.6195 16.848C90.1235 18.144 89.4195 19.272 88.5075 20.232C87.5955 21.176 86.4915 21.92 85.1955 22.464C83.8995 23.008 82.4515 23.28 80.8515 23.28C79.2675 23.28 77.8275 23.008 76.5315 22.464C75.2355 21.92 74.1315 21.176 73.2195 20.232C72.3075 19.272 71.5955 18.144 71.0835 16.848C70.5715 15.536 70.3155 14.128 70.3155 12.624ZM74.1075 12.624C74.1075 13.632 74.2675 14.584 74.5875 15.48C74.9075 16.36 75.3555 17.136 75.9315 17.808C76.5235 18.464 77.2355 18.992 78.0675 19.392C78.8995 19.776 79.8275 19.968 80.8515 19.968C81.8755 19.968 82.8035 19.776 83.6355 19.392C84.4675 18.992 85.1715 18.464 85.7475 17.808C86.3395 17.136 86.7955 16.36 87.1155 15.48C87.4355 14.584 87.5955 13.632 87.5955 12.624C87.5955 11.6 87.4355 10.648 87.1155 9.768C86.7955 8.872 86.3395 8.088 85.7475 7.416C85.1715 6.744 84.4675 6.216 83.6355 5.832C82.8035 5.448 81.8755 5.256 80.8515 5.256C79.8115 5.256 78.8755 5.448 78.0435 5.832C77.2275 6.216 76.5235 6.744 75.9315 7.416C75.3395 8.088 74.8835 8.872 74.5635 9.768C74.2595 10.648 74.1075 11.6 74.1075 12.624ZM103.955 5.472C103.027 5.472 102.171 5.648 101.387 6C100.603 6.352 99.9313 6.848 99.3713 7.488C98.8113 8.128 98.3713 8.88 98.0513 9.744C97.7313 10.592 97.5713 11.536 97.5713 12.576C97.5713 13.616 97.7313 14.568 98.0513 15.432C98.3873 16.296 98.8353 17.048 99.3953 17.688C99.9713 18.312 100.651 18.8 101.435 19.152C102.235 19.504 103.099 19.68 104.027 19.68C105.739 19.664 107.147 19.192 108.251 18.264C109.355 17.32 110.011 15.968 110.219 14.208C109.995 14.432 109.739 14.584 109.451 14.664C109.179 14.744 108.907 14.784 108.635 14.784H104.987V13.56C104.987 12.968 105.187 12.472 105.587 12.072C105.987 11.672 106.499 11.472 107.123 11.472H114.059C114.091 11.744 114.115 12.016 114.131 12.288C114.147 12.56 114.155 12.832 114.155 13.104C114.155 14.464 113.891 15.76 113.363 16.992C112.835 18.208 112.115 19.28 111.203 20.208C110.307 21.136 109.243 21.864 108.011 22.392C106.795 22.936 105.491 23.208 104.099 23.208C102.643 23.208 101.275 22.952 99.9953 22.44C98.7313 21.928 97.6273 21.216 96.6833 20.304C95.7393 19.392 94.9953 18.288 94.4513 16.992C93.9073 15.696 93.6353 14.256 93.6353 12.672C93.6353 11.104 93.8993 9.664 94.4273 8.352C94.9713 7.024 95.7073 5.888 96.6353 4.944C97.5633 3.984 98.6433 3.24 99.8753 2.712C101.123 2.168 102.451 1.896 103.859 1.896C105.475 1.896 106.995 2.2 108.419 2.808C109.843 3.416 111.067 4.28 112.091 5.4L111.203 6.408C110.835 6.92 110.395 7.216 109.883 7.296C109.387 7.36 108.883 7.192 108.371 6.792C107.651 6.344 106.907 6.016 106.139 5.808C105.387 5.584 104.659 5.472 103.955 5.472ZM116.019 12.624C116.019 11.104 116.275 9.696 116.787 8.4C117.299 7.088 118.011 5.96 118.923 5.016C119.835 4.056 120.939 3.304 122.235 2.76C123.531 2.2 124.971 1.92 126.555 1.92C128.155 1.92 129.603 2.2 130.899 2.76C132.195 3.304 133.299 4.056 134.211 5.016C135.123 5.96 135.827 7.088 136.323 8.4C136.835 9.696 137.091 11.104 137.091 12.624C137.091 14.128 136.835 15.536 136.323 16.848C135.827 18.144 135.123 19.272 134.211 20.232C133.299 21.176 132.195 21.92 130.899 22.464C129.603 23.008 128.155 23.28 126.555 23.28C124.971 23.28 123.531 23.008 122.235 22.464C120.939 21.92 119.835 21.176 118.923 20.232C118.011 19.272 117.299 18.144 116.787 16.848C116.275 15.536 116.019 14.128 116.019 12.624ZM119.811 12.624C119.811 13.632 119.971 14.584 120.291 15.48C120.611 16.36 121.059 17.136 121.635 17.808C122.227 18.464 122.939 18.992 123.771 19.392C124.603 19.776 125.531 19.968 126.555 19.968C127.579 19.968 128.507 19.776 129.339 19.392C130.171 18.992 130.875 18.464 131.451 17.808C132.043 17.136 132.499 16.36 132.819 15.48C133.139 14.584 133.299 13.632 133.299 12.624C133.299 11.6 133.139 10.648 132.819 9.768C132.499 8.872 132.043 8.088 131.451 7.416C130.875 6.744 130.171 6.216 129.339 5.832C128.507 5.448 127.579 5.256 126.555 5.256C125.515 5.256 124.579 5.448 123.747 5.832C122.931 6.216 122.227 6.744 121.635 7.416C121.043 8.088 120.587 8.872 120.267 9.768C119.963 10.648 119.811 11.6 119.811 12.624Z" fill="black"/>
<defs>
<clipPath id="clip0_4118_162430">
<rect width="26" height="26" fill="white"/>
</clipPath>
</defs>
</svg>
