<svg width="49" height="48" viewBox="0 0 49 48" fill="none" xmlns="http://www.w3.org/2000/svg">
<g opacity="0.4">
<rect width="48" height="48" transform="translate(0.333496)" fill="black"/>
<path d="M34.3335 14H14.3335C12.9585 14 11.8335 15.125 11.8335 16.5V31.5C11.8335 32.875 12.9585 34 14.3335 34H34.3335C35.7085 34 36.8335 32.875 36.8335 31.5V16.5C36.8335 15.125 35.7085 14 34.3335 14ZM34.3335 31.5H14.3335V16.5H34.3335V31.5ZM16.8335 21.5H19.3335V24H16.8335V21.5ZM16.8335 26.5H26.8335V29H16.8335V26.5ZM29.3335 26.5H31.8335V29H29.3335V26.5ZM21.8335 21.5H31.8335V24H21.8335V21.5Z" fill="white"/>
</g>
</svg>
