<svg width="14" height="14" viewBox="0 0 14 14" fill="none" xmlns="http://www.w3.org/2000/svg">
<path d="M6.99996 0.669434C3.77996 0.669434 1.16663 3.28277 1.16663 6.50277C1.16663 9.72277 3.77996 12.3361 6.99996 12.3361C10.22 12.3361 12.8333 9.72277 12.8333 6.50277C12.8333 3.28277 10.22 0.669434 6.99996 0.669434ZM4.12413 10.1661C4.37496 9.6411 5.90329 9.12777 6.99996 9.12777C8.09663 9.12777 9.63079 9.6411 9.87579 10.1661C9.08246 10.7961 8.08496 11.1694 6.99996 11.1694C5.91496 11.1694 4.91746 10.7961 4.12413 10.1661ZM10.71 9.32027C9.87579 8.30527 7.85163 7.9611 6.99996 7.9611C6.14829 7.9611 4.12413 8.30527 3.28996 9.32027C2.69496 8.5386 2.33329 7.56443 2.33329 6.50277C2.33329 3.93027 4.42746 1.8361 6.99996 1.8361C9.57246 1.8361 11.6666 3.93027 11.6666 6.50277C11.6666 7.56443 11.305 8.5386 10.71 9.32027ZM6.99996 3.00277C5.86829 3.00277 4.95829 3.91277 4.95829 5.04443C4.95829 6.1761 5.86829 7.0861 6.99996 7.0861C8.13163 7.0861 9.04163 6.1761 9.04163 5.04443C9.04163 3.91277 8.13163 3.00277 6.99996 3.00277ZM6.99996 5.91943C6.51579 5.91943 6.12496 5.5286 6.12496 5.04443C6.12496 4.56027 6.51579 4.16943 6.99996 4.16943C7.48413 4.16943 7.87496 4.56027 7.87496 5.04443C7.87496 5.5286 7.48413 5.91943 6.99996 5.91943Z" fill="#262626"/>
</svg>
