<svg width="14" height="14" viewBox="0 0 14 14" fill="none" xmlns="http://www.w3.org/2000/svg">

<path fill-rule="evenodd" clip-rule="evenodd" d="M2.33329 0.669434H11.6666C12.25 0.669434 12.8333 1.19443 12.8333 1.8361V3.59193C12.8333 4.01193 12.5825 4.3736 12.25 4.57777V11.1694C12.25 11.8111 11.6083 12.3361 11.0833 12.3361H2.91663C2.39163 12.3361 1.74996 11.8111 1.74996 11.1694V4.57777C1.41746 4.3736 1.16663 4.01193 1.16663 3.59193V1.8361C1.16663 1.19443 1.74996 0.669434 2.33329 0.669434ZM2.91663 11.1694H11.0833V4.75277H2.91663V11.1694ZM2.33329 3.5861H11.6666V1.8361H2.33329V3.5861ZM5.24996 6.50277H8.74996V7.66943H5.24996V6.50277Z" fill="#262626"/>
</svg>
