<svg width="16" height="16" viewBox="0 0 16 16" fill="none" xmlns="http://www.w3.org/2000/svg">
<path d="M9.41325 2.66634L10.6333 3.99967H13.3333V11.9997H2.66659V3.99967H5.36659L6.58659 2.66634H9.41325V2.66634ZM9.99992 1.33301H5.99992L4.77992 2.66634H2.66659C1.93325 2.66634 1.33325 3.26634 1.33325 3.99967V11.9997C1.33325 12.733 1.93325 13.333 2.66659 13.333H13.3333C14.0666 13.333 14.6666 12.733 14.6666 11.9997V3.99967C14.6666 3.26634 14.0666 2.66634 13.3333 2.66634H11.2199L9.99992 1.33301ZM7.99992 5.99967C9.09992 5.99967 9.99992 6.89967 9.99992 7.99967C9.99992 9.09967 9.09992 9.99967 7.99992 9.99967C6.89992 9.99967 5.99992 9.09967 5.99992 7.99967C5.99992 6.89967 6.89992 5.99967 7.99992 5.99967ZM7.99992 4.66634C6.15992 4.66634 4.66659 6.15967 4.66659 7.99967C4.66659 9.83967 6.15992 11.333 7.99992 11.333C9.83992 11.333 11.3333 9.83967 11.3333 7.99967C11.3333 6.15967 9.83992 4.66634 7.99992 4.66634Z" fill="#8C8C8C"/>
</svg>
