<svg width="40" height="36" viewBox="0 0 40 36" fill="none" xmlns="http://www.w3.org/2000/svg">
<path d="M21.4133 2.66634L22.6333 3.99967H25.3333V11.9997H14.6666V3.99967H17.3666L18.5866 2.66634H21.4133ZM21.9999 1.33301H17.9999L16.7799 2.66634H14.6666C13.9333 2.66634 13.3333 3.26634 13.3333 3.99967V11.9997C13.3333 12.733 13.9333 13.333 14.6666 13.333H25.3333C26.0666 13.333 26.6666 12.733 26.6666 11.9997V3.99967C26.6666 3.26634 26.0666 2.66634 25.3333 2.66634H23.2199L21.9999 1.33301ZM19.9999 5.99967C21.0999 5.99967 21.9999 6.89967 21.9999 7.99967C21.9999 9.09967 21.0999 9.99967 19.9999 9.99967C18.8999 9.99967 17.9999 9.09967 17.9999 7.99967C17.9999 6.89967 18.8999 5.99967 19.9999 5.99967ZM19.9999 4.66634C18.1599 4.66634 16.6666 6.15967 16.6666 7.99967C16.6666 9.83967 18.1599 11.333 19.9999 11.333C21.8399 11.333 23.3333 9.83967 23.3333 7.99967C23.3333 6.15967 21.8399 4.66634 19.9999 4.66634Z" fill="white"/>
<g clip-path="url(#clip0_2512_42723)">
<path d="M6.99219 21.5156H8.04688V27.1289C8.04688 28.875 6.74609 30.1523 4.74219 30.1523C2.73828 30.1523 1.4375 28.875 1.4375 27.1289V21.5156H2.49219V27.0469C2.49219 28.2773 3.34766 29.168 4.74219 29.168C6.14844 29.168 6.99219 28.2773 6.99219 27.0469V21.5156ZM9.79297 32.3906V23.6367H10.7656V24.6445H10.8828C11.0938 24.3047 11.4922 23.5547 12.7227 23.5547C14.3164 23.5547 15.4297 24.8203 15.4297 26.8359C15.4297 28.8516 14.3164 30.1289 12.7344 30.1289C11.5156 30.1289 11.0938 29.3789 10.8828 29.0273H10.8008V32.3906H9.79297ZM10.7773 26.8125C10.7773 28.2422 11.4219 29.2266 12.5938 29.2266C13.8008 29.2266 14.4219 28.1719 14.4219 26.8125C14.4219 25.4883 13.8125 24.457 12.5938 24.457C11.3984 24.457 10.7773 25.4062 10.7773 26.8125ZM17.75 21.5156V30H16.7422V21.5156H17.75ZM21.957 30.1289C20.2227 30.1289 19.0508 28.8281 19.0508 26.8477C19.0508 24.8672 20.2227 23.5547 21.957 23.5547C23.6797 23.5547 24.8398 24.8672 24.8398 26.8477C24.8398 28.8281 23.6797 30.1289 21.957 30.1289ZM21.957 29.2383C23.2344 29.2383 23.832 28.1133 23.832 26.8477C23.832 25.582 23.2344 24.4453 21.957 24.4453C20.6562 24.4453 20.0586 25.582 20.0586 26.8477C20.0586 28.1133 20.6562 29.2383 21.957 29.2383ZM25.8594 28.1953C25.8594 26.7305 27.1484 26.4023 28.25 26.3203C28.6543 26.291 29.6855 26.2383 29.9727 26.2266V25.7109C29.9727 24.9023 29.4922 24.4336 28.5312 24.4336C27.7227 24.4336 27.2422 24.8086 27.1016 25.2891H26.0469C26.1758 24.2695 27.1719 23.5547 28.5781 23.5547C29.4102 23.5547 30.9688 23.8008 30.9688 25.8047V30H29.9727V29.1328H29.9258C29.7148 29.5664 29.1289 30.1523 28.0273 30.1523C26.8203 30.1523 25.8594 29.4375 25.8594 28.1953ZM26.8672 28.2422C26.8672 28.9102 27.4297 29.25 28.2031 29.25C29.3398 29.25 29.9727 28.4883 29.9727 27.6914V27.0469L28.3672 27.1641C27.4531 27.2227 26.8672 27.5508 26.8672 28.2422ZM34.9883 30.1289C33.4062 30.1289 32.2812 28.8516 32.2812 26.8359C32.2812 24.8203 33.4062 23.5547 35 23.5547C36.2305 23.5547 36.6289 24.3047 36.8398 24.6445H36.9102V21.5156H37.9297V30H36.9453V29.0273H36.8398C36.6172 29.3789 36.207 30.1289 34.9883 30.1289ZM35.1289 29.2266C36.2891 29.2266 36.9453 28.2422 36.9453 26.8125C36.9453 25.4062 36.3125 24.457 35.1289 24.457C33.9102 24.457 33.3008 25.4883 33.3008 26.8125C33.3008 28.1719 33.9219 29.2266 35.1289 29.2266Z" fill="white"/>
</g>
<defs>
<clipPath id="clip0_2512_42723">
<rect width="39" height="20" fill="white" transform="translate(0.5 16)"/>
</clipPath>
</defs>
</svg>
