<svg width="14" height="14" viewBox="0 0 14 14" fill="none" xmlns="http://www.w3.org/2000/svg">

<path d="M4.08333 8.25273H8.16667V9.41939H4.08333V8.25273ZM4.08333 5.91939H9.91667V7.08606H4.08333V5.91939ZM4.08333 3.58606H9.91667V4.75273H4.08333V3.58606ZM11.0833 1.25273H8.645C8.4 0.57606 7.75833 0.0860596 7 0.0860596C6.24167 0.0860596 5.6 0.57606 5.355 1.25273H2.91667C2.835 1.25273 2.75917 1.25856 2.68333 1.27606C2.45583 1.32273 2.25167 1.43939 2.09417 1.59689C1.98917 1.70189 1.90167 1.83023 1.84333 1.97023C1.785 2.10439 1.75 2.25606 1.75 2.41939V10.5861C1.75 10.7436 1.785 10.9011 1.84333 11.0411C1.90167 11.1811 1.98917 11.3036 2.09417 11.4144C2.25167 11.5719 2.45583 11.6886 2.68333 11.7352C2.75917 11.7469 2.835 11.7527 2.91667 11.7527H11.0833C11.725 11.7527 12.25 11.2277 12.25 10.5861V2.41939C12.25 1.77773 11.725 1.25273 11.0833 1.25273ZM7 1.10689C7.23917 1.10689 7.4375 1.30523 7.4375 1.54439C7.4375 1.78356 7.23917 1.98189 7 1.98189C6.76083 1.98189 6.5625 1.78356 6.5625 1.54439C6.5625 1.30523 6.76083 1.10689 7 1.10689ZM11.0833 10.5861H2.91667V2.41939H11.0833V10.5861Z" fill="#262626"/>
</svg>
