<svg width="14" height="14" viewBox="0 0 14 14" fill="none" xmlns="http://www.w3.org/2000/svg">

<path d="M11.3342 7.07443C11.3575 6.88777 11.375 6.7011 11.375 6.50277C11.375 6.30443 11.3575 6.11777 11.3342 5.9311L12.565 4.9686C12.6759 4.8811 12.705 4.7236 12.635 4.59527L11.4684 2.57693C11.4159 2.4836 11.3167 2.4311 11.2117 2.4311C11.1767 2.4311 11.1417 2.43693 11.1125 2.4486L9.66003 3.03193C9.3567 2.7986 9.03003 2.6061 8.67419 2.46027L8.45253 0.914434C8.43503 0.774434 8.31253 0.669434 8.1667 0.669434H5.83336C5.68753 0.669434 5.56503 0.774434 5.54753 0.914434L5.32586 2.46027C4.97003 2.6061 4.64336 2.80443 4.34003 3.03193L2.88753 2.4486C2.85253 2.43693 2.81753 2.4311 2.78253 2.4311C2.68336 2.4311 2.5842 2.4836 2.5317 2.57693L1.36503 4.59527C1.2892 4.7236 1.3242 4.8811 1.43503 4.9686L2.66586 5.9311C2.64253 6.11777 2.62503 6.31027 2.62503 6.50277C2.62503 6.69527 2.64253 6.88777 2.66586 7.07443L1.43503 8.03693C1.3242 8.12443 1.29503 8.28193 1.36503 8.41027L2.5317 10.4286C2.5842 10.5219 2.68336 10.5744 2.78836 10.5744C2.82336 10.5744 2.85836 10.5686 2.88753 10.5569L4.34003 9.9736C4.64336 10.2069 4.97003 10.3994 5.32586 10.5453L5.54753 12.0911C5.56503 12.2311 5.68753 12.3361 5.83336 12.3361H8.1667C8.31253 12.3361 8.43503 12.2311 8.45253 12.0911L8.67419 10.5453C9.03003 10.3994 9.3567 10.2011 9.66003 9.9736L11.1125 10.5569C11.1475 10.5686 11.1825 10.5744 11.2175 10.5744C11.3167 10.5744 11.4159 10.5219 11.4684 10.4286L12.635 8.41027C12.705 8.28193 12.6759 8.12443 12.565 8.03693L11.3342 7.07443ZM10.1792 6.07693C10.2025 6.25777 10.2084 6.38027 10.2084 6.50277C10.2084 6.62527 10.1967 6.7536 10.1792 6.9286L10.0975 7.58777L10.6167 7.9961L11.2467 8.4861L10.8384 9.19193L10.0975 8.89443L9.49086 8.64943L8.96586 9.0461C8.71503 9.23277 8.47586 9.37277 8.23669 9.47193L7.61836 9.72277L7.52503 10.3819L7.40836 11.1694H6.5917L6.48086 10.3819L6.38753 9.72277L5.7692 9.47193C5.51836 9.36693 5.28503 9.23277 5.05169 9.05777L4.52086 8.64943L3.90253 8.90027L3.1617 9.19777L2.75336 8.49193L3.38336 8.00193L3.90253 7.5936L3.82086 6.93443C3.80336 6.7536 3.79169 6.61943 3.79169 6.50277C3.79169 6.3861 3.80336 6.25193 3.82086 6.07693L3.90253 5.41777L3.38336 5.00943L2.75336 4.51943L3.1617 3.8136L3.90253 4.1111L4.50919 4.3561L5.03419 3.95943C5.28503 3.77277 5.52419 3.63277 5.76336 3.5336L6.38169 3.28277L6.47503 2.6236L6.5917 1.8361H7.40253L7.51336 2.6236L7.6067 3.28277L8.22503 3.5336C8.47586 3.6386 8.7092 3.77277 8.94253 3.94777L9.47336 4.3561L10.0917 4.10527L10.8325 3.80777L11.2409 4.5136L10.6167 5.00943L10.0975 5.41777L10.1792 6.07693ZM7.00003 4.16943C5.71086 4.16943 4.66669 5.2136 4.66669 6.50277C4.66669 7.79193 5.71086 8.8361 7.00003 8.8361C8.2892 8.8361 9.33336 7.79193 9.33336 6.50277C9.33336 5.2136 8.2892 4.16943 7.00003 4.16943ZM7.00003 7.66943C6.35836 7.66943 5.83336 7.14443 5.83336 6.50277C5.83336 5.8611 6.35836 5.3361 7.00003 5.3361C7.6417 5.3361 8.1667 5.8611 8.1667 6.50277C8.1667 7.14443 7.6417 7.66943 7.00003 7.66943Z" fill="#1890FF"/>
</svg>
