<svg width="19" height="4" viewBox="0 0 19 4" fill="none" xmlns="http://www.w3.org/2000/svg">
<path d="M0.882812 2.0918C0.882812 1.61328 1.05143 1.2054 1.38867 0.868164C1.73047 0.530924 2.13835 0.362305 2.6123 0.362305C3.09082 0.362305 3.4987 0.530924 3.83594 0.868164C4.17773 1.2054 4.34863 1.61328 4.34863 2.0918C4.34863 2.57031 4.17773 2.98047 3.83594 3.32227C3.4987 3.65951 3.09082 3.82812 2.6123 3.82812C2.13835 3.82812 1.73047 3.65951 1.38867 3.32227C1.05143 2.98047 0.882812 2.57031 0.882812 2.0918ZM7.79102 2.0918C7.79102 1.61328 7.95964 1.2054 8.29688 0.868164C8.63867 0.530924 9.04655 0.362305 9.52051 0.362305C9.99902 0.362305 10.4069 0.530924 10.7441 0.868164C11.0859 1.2054 11.2568 1.61328 11.2568 2.0918C11.2568 2.57031 11.0859 2.98047 10.7441 3.32227C10.4069 3.65951 9.99902 3.82812 9.52051 3.82812C9.04655 3.82812 8.63867 3.65951 8.29688 3.32227C7.95964 2.98047 7.79102 2.57031 7.79102 2.0918ZM14.6992 2.0918C14.6992 1.61328 14.8678 1.2054 15.2051 0.868164C15.5469 0.530924 15.9548 0.362305 16.4287 0.362305C16.9072 0.362305 17.3151 0.530924 17.6523 0.868164C17.9941 1.2054 18.165 1.61328 18.165 2.0918C18.165 2.57031 17.9941 2.98047 17.6523 3.32227C17.3151 3.65951 16.9072 3.82812 16.4287 3.82812C15.9548 3.82812 15.5469 3.65951 15.2051 3.32227C14.8678 2.98047 14.6992 2.57031 14.6992 2.0918Z" fill="#D9D9D9"/>
</svg>
