<svg width="12" height="12" viewBox="0 0 12 12" fill="none" xmlns="http://www.w3.org/2000/svg">
<path d="M9.34801 1.33899H8.49086C8.43194 1.33899 8.38372 1.38721 8.38372 1.44613V10.6604C8.38372 10.7193 8.43194 10.7676 8.49086 10.7676H9.34801C9.40694 10.7676 9.45515 10.7193 9.45515 10.6604V1.44613C9.45515 1.38721 9.40694 1.33899 9.34801 1.33899ZM2.54444 1.33899V2.30863C2.54444 2.43587 2.60069 2.55506 2.69711 2.63676L6.70426 5.99971L2.69711 9.36265C2.60069 9.44435 2.54444 9.56354 2.54444 9.69078V10.6604C2.54444 10.7515 2.65024 10.801 2.71988 10.7421L8.37033 5.99971L2.71988 1.2573C2.70436 1.2441 2.68537 1.23563 2.66518 1.23289C2.64499 1.23016 2.62443 1.23328 2.60596 1.24188C2.58749 1.25049 2.57187 1.26421 2.56097 1.28142C2.55006 1.29863 2.54432 1.31862 2.54444 1.33899Z" fill="#262626"/>
</svg>
