<svg width="16" height="16" viewBox="0 0 16 16" fill="none" xmlns="http://www.w3.org/2000/svg">
<path d="M7.33337 10.0002H8.66671V11.3335H7.33337V10.0002ZM7.33337 4.66683H8.66671V8.66683H7.33337V4.66683ZM7.99337 1.3335C4.31337 1.3335 1.33337 4.32016 1.33337 8.00016C1.33337 11.6802 4.31337 14.6668 7.99337 14.6668C11.68 14.6668 14.6667 11.6802 14.6667 8.00016C14.6667 4.32016 11.68 1.3335 7.99337 1.3335ZM8.00004 13.3335C5.05337 13.3335 2.66671 10.9468 2.66671 8.00016C2.66671 5.0535 5.05337 2.66683 8.00004 2.66683C10.9467 2.66683 13.3334 5.0535 13.3334 8.00016C13.3334 10.9468 10.9467 13.3335 8.00004 13.3335Z" fill="#FF4D4F"/>
</svg>
