<svg width="14" height="14" viewBox="0 0 14 14" fill="none" xmlns="http://www.w3.org/2000/svg">

<path d="M12.775 4.68852L12.1625 2.13935C12.0342 1.61435 11.5792 1.25269 11.0483 1.25269H2.94584C2.42084 1.25269 1.96 1.62019 1.8375 2.13935L1.225 4.68852C1.085 5.28352 1.21334 5.89019 1.58667 6.36852C1.63334 6.43269 1.6975 6.47935 1.75 6.53769V10.586C1.75 11.2277 2.275 11.7527 2.91667 11.7527H11.0833C11.725 11.7527 12.25 11.2277 12.25 10.586V6.53769C12.3025 6.48519 12.3667 6.43269 12.4133 6.37435C12.7867 5.89602 12.9208 5.28352 12.775 4.68852ZM11.0308 2.41352L11.6433 4.96269C11.7017 5.20769 11.6492 5.45269 11.4975 5.64519C11.4158 5.75019 11.2408 5.91935 10.9492 5.91935C10.5933 5.91935 10.2842 5.63352 10.2433 5.25435L9.905 2.41935L11.0308 2.41352ZM7.58334 2.41935H8.72667L9.04167 5.05602C9.07084 5.28352 9.00084 5.51102 8.84917 5.68019C8.72084 5.83185 8.53417 5.91935 8.295 5.91935C7.90417 5.91935 7.58334 5.57519 7.58334 5.15519V2.41935ZM4.9525 5.05602L5.27334 2.41935H6.41667V5.15519C6.41667 5.57519 6.09584 5.91935 5.66417 5.91935C5.46584 5.91935 5.285 5.83185 5.145 5.68019C4.99917 5.51102 4.92917 5.28352 4.9525 5.05602ZM2.35667 4.96269L2.94584 2.41935H4.095L3.75667 5.25435C3.71 5.63352 3.40667 5.91935 3.05084 5.91935C2.765 5.91935 2.58417 5.75019 2.50834 5.64519C2.35084 5.45852 2.29834 5.20769 2.35667 4.96269ZM2.91667 10.586V7.06852C2.96334 7.07435 3.00417 7.08602 3.05084 7.08602C3.55834 7.08602 4.01917 6.87602 4.3575 6.53185C4.7075 6.88185 5.17417 7.08602 5.705 7.08602C6.2125 7.08602 6.6675 6.87602 7.00584 6.54352C7.35 6.87602 7.81667 7.08602 8.34167 7.08602C8.83167 7.08602 9.29834 6.88185 9.64834 6.53185C9.98667 6.87602 10.4475 7.08602 10.955 7.08602C11.0017 7.08602 11.0425 7.07435 11.0892 7.06852V10.586H2.91667Z" fill="#262626"/>
</svg>
