<svg width="14" height="14" viewBox="0 0 14 14" fill="none" xmlns="http://www.w3.org/2000/svg">
<path d="M10.5 3.00277H9.33337C9.33337 1.7136 8.28921 0.669434 7.00004 0.669434C5.71087 0.669434 4.66671 1.7136 4.66671 3.00277H3.50004C2.85837 3.00277 2.33337 3.52777 2.33337 4.16943V11.1694C2.33337 11.8111 2.85837 12.3361 3.50004 12.3361H10.5C11.1417 12.3361 11.6667 11.8111 11.6667 11.1694V4.16943C11.6667 3.52777 11.1417 3.00277 10.5 3.00277ZM7.00004 1.8361C7.64171 1.8361 8.16671 2.3611 8.16671 3.00277H5.83337C5.83337 2.3611 6.35837 1.8361 7.00004 1.8361ZM10.5 11.1694H3.50004V4.16943H4.66671V5.3361C4.66671 5.65693 4.92921 5.91943 5.25004 5.91943C5.57087 5.91943 5.83337 5.65693 5.83337 5.3361V4.16943H8.16671V5.3361C8.16671 5.65693 8.42921 5.91943 8.75004 5.91943C9.07087 5.91943 9.33337 5.65693 9.33337 5.3361V4.16943H10.5V11.1694Z" fill="#1890FF"/>
</svg>
