<svg width="60" height="20" viewBox="0 0 60 20" fill="none" xmlns="http://www.w3.org/2000/svg">
<path d="M9.9135 4.66634L11.1335 5.99967H13.8335V13.9997H3.16683V5.99967H5.86683L7.08683 4.66634H9.9135ZM10.5002 3.33301H6.50016L5.28016 4.66634H3.16683C2.4335 4.66634 1.8335 5.26634 1.8335 5.99967V13.9997C1.8335 14.733 2.4335 15.333 3.16683 15.333H13.8335C14.5668 15.333 15.1668 14.733 15.1668 13.9997V5.99967C15.1668 5.26634 14.5668 4.66634 13.8335 4.66634H11.7202L10.5002 3.33301ZM8.50016 7.99967C9.60016 7.99967 10.5002 8.89967 10.5002 9.99967C10.5002 11.0997 9.60016 11.9997 8.50016 11.9997C7.40016 11.9997 6.50016 11.0997 6.50016 9.99967C6.50016 8.89967 7.40016 7.99967 8.50016 7.99967ZM8.50016 6.66634C6.66016 6.66634 5.16683 8.15967 5.16683 9.99967C5.16683 11.8397 6.66016 13.333 8.50016 13.333C10.3402 13.333 11.8335 11.8397 11.8335 9.99967C11.8335 8.15967 10.3402 6.66634 8.50016 6.66634Z" fill="white"/>
<g clip-path="url(#clip0_2512_42452)">
<path d="M26.9922 5.51562H28.0469V11.1289C28.0469 12.875 26.7461 14.1523 24.7422 14.1523C22.7383 14.1523 21.4375 12.875 21.4375 11.1289V5.51562H22.4922V11.0469C22.4922 12.2773 23.3477 13.168 24.7422 13.168C26.1484 13.168 26.9922 12.2773 26.9922 11.0469V5.51562ZM29.793 16.3906V7.63672H30.7656V8.64453H30.8828C31.0938 8.30469 31.4922 7.55469 32.7227 7.55469C34.3164 7.55469 35.4297 8.82031 35.4297 10.8359C35.4297 12.8516 34.3164 14.1289 32.7344 14.1289C31.5156 14.1289 31.0938 13.3789 30.8828 13.0273H30.8008V16.3906H29.793ZM30.7773 10.8125C30.7773 12.2422 31.4219 13.2266 32.5938 13.2266C33.8008 13.2266 34.4219 12.1719 34.4219 10.8125C34.4219 9.48828 33.8125 8.45703 32.5938 8.45703C31.3984 8.45703 30.7773 9.40625 30.7773 10.8125ZM37.75 5.51562V14H36.7422V5.51562H37.75ZM41.957 14.1289C40.2227 14.1289 39.0508 12.8281 39.0508 10.8477C39.0508 8.86719 40.2227 7.55469 41.957 7.55469C43.6797 7.55469 44.8398 8.86719 44.8398 10.8477C44.8398 12.8281 43.6797 14.1289 41.957 14.1289ZM41.957 13.2383C43.2344 13.2383 43.832 12.1133 43.832 10.8477C43.832 9.58203 43.2344 8.44531 41.957 8.44531C40.6562 8.44531 40.0586 9.58203 40.0586 10.8477C40.0586 12.1133 40.6562 13.2383 41.957 13.2383ZM45.8594 12.1953C45.8594 10.7305 47.1484 10.4023 48.25 10.3203C48.6543 10.291 49.6855 10.2383 49.9727 10.2266V9.71094C49.9727 8.90234 49.4922 8.43359 48.5312 8.43359C47.7227 8.43359 47.2422 8.80859 47.1016 9.28906H46.0469C46.1758 8.26953 47.1719 7.55469 48.5781 7.55469C49.4102 7.55469 50.9688 7.80078 50.9688 9.80469V14H49.9727V13.1328H49.9258C49.7148 13.5664 49.1289 14.1523 48.0273 14.1523C46.8203 14.1523 45.8594 13.4375 45.8594 12.1953ZM46.8672 12.2422C46.8672 12.9102 47.4297 13.25 48.2031 13.25C49.3398 13.25 49.9727 12.4883 49.9727 11.6914V11.0469L48.3672 11.1641C47.4531 11.2227 46.8672 11.5508 46.8672 12.2422ZM54.9883 14.1289C53.4062 14.1289 52.2812 12.8516 52.2812 10.8359C52.2812 8.82031 53.4062 7.55469 55 7.55469C56.2305 7.55469 56.6289 8.30469 56.8398 8.64453H56.9102V5.51562H57.9297V14H56.9453V13.0273H56.8398C56.6172 13.3789 56.207 14.1289 54.9883 14.1289ZM55.1289 13.2266C56.2891 13.2266 56.9453 12.2422 56.9453 10.8125C56.9453 9.40625 56.3125 8.45703 55.1289 8.45703C53.9102 8.45703 53.3008 9.48828 53.3008 10.8125C53.3008 12.1719 53.9219 13.2266 55.1289 13.2266Z" fill="white"/>
</g>
<defs>
<clipPath id="clip0_2512_42452">
<rect width="39" height="20" fill="white" transform="translate(20.5)"/>
</clipPath>
</defs>
</svg>
