<svg width="14" height="14" viewBox="0 0 14 14" fill="none" xmlns="http://www.w3.org/2000/svg">
<path d="M12.8333 5.33606V3.00273C12.8333 2.35523 12.3083 1.83606 11.6666 1.83606H2.33329C1.69163 1.83606 1.17246 2.35523 1.17246 3.00273V5.33606C1.81413 5.33606 2.33329 5.86106 2.33329 6.50273C2.33329 7.14439 1.81413 7.66939 1.16663 7.66939V10.0027C1.16663 10.6444 1.69163 11.1694 2.33329 11.1694H11.6666C12.3083 11.1694 12.8333 10.6444 12.8333 10.0027V7.66939C12.1916 7.66939 11.6666 7.14439 11.6666 6.50273C11.6666 5.86106 12.1916 5.33606 12.8333 5.33606ZM11.6666 4.48439C10.9725 4.88689 10.5 5.64523 10.5 6.50273C10.5 7.36023 10.9725 8.11856 11.6666 8.52106V10.0027H2.33329V8.52106C3.02746 8.11856 3.49996 7.36023 3.49996 6.50273C3.49996 5.63939 3.03329 4.88689 2.33913 4.48439L2.33329 3.00273H11.6666V4.48439ZM6.41663 8.25273H7.58329V9.41939H6.41663V8.25273ZM6.41663 5.91939H7.58329V7.08606H6.41663V5.91939ZM6.41663 3.58606H7.58329V4.75273H6.41663V3.58606Z" fill="#262626"/>
</svg>
