<svg width="12" height="12" viewBox="0 0 12 12" fill="none" xmlns="http://www.w3.org/2000/svg">
<path d="M3.50872 1.33918H2.65158C2.59265 1.33918 2.54443 1.3874 2.54443 1.44633V10.6606C2.54443 10.7195 2.59265 10.7678 2.65158 10.7678H3.50872C3.56765 10.7678 3.61586 10.7195 3.61586 10.6606V1.44633C3.61586 1.3874 3.56765 1.33918 3.50872 1.33918ZM9.45515 2.30883V1.33918C9.45515 1.24811 9.34935 1.19856 9.2797 1.25749L3.62926 5.9999L9.2797 10.7423C9.34935 10.8012 9.45515 10.7517 9.45515 10.6606V9.69097C9.45515 9.56508 9.3989 9.44454 9.30247 9.36285L5.29533 5.9999L9.30247 2.63695C9.3989 2.55526 9.45515 2.43472 9.45515 2.30883Z" fill="#262626"/>
</svg>
