<svg width="14" height="14" viewBox="0 0 14 14" fill="none" xmlns="http://www.w3.org/2000/svg">

<path d="M3.815 2.41935C3.85 2.93852 3.9375 3.44602 4.0775 3.93019L3.3775 4.63019C3.13833 3.93019 2.98667 3.18935 2.93417 2.41935H3.815ZM9.56667 9.43102C10.0625 9.57102 10.57 9.65852 11.0833 9.69352V10.5627C10.3133 10.5102 9.5725 10.3585 8.86667 10.1252L9.56667 9.43102ZM4.375 1.25269H2.33333C2.0125 1.25269 1.75 1.51519 1.75 1.83602C1.75 7.31352 6.18917 11.7527 11.6667 11.7527C11.9875 11.7527 12.25 11.4902 12.25 11.1694V9.13352C12.25 8.81269 11.9875 8.55019 11.6667 8.55019C10.9433 8.55019 10.2375 8.43352 9.58417 8.21769C9.52583 8.19435 9.46167 8.18852 9.40333 8.18852C9.25167 8.18852 9.10583 8.24685 8.98917 8.35769L7.70583 9.64102C6.055 8.79518 4.70167 7.44769 3.86167 5.79685L5.145 4.51352C5.30833 4.35019 5.355 4.12269 5.29083 3.91852C5.075 3.26519 4.95833 2.56519 4.95833 1.83602C4.95833 1.51519 4.69583 1.25269 4.375 1.25269Z" fill="#262626"/>
</svg>
