<svg width="14" height="14" viewBox="0 0 14 14" fill="none" xmlns="http://www.w3.org/2000/svg">
<path d="M11.1766 2.07266C9.7047 0.600781 7.30783 0.600781 5.83751 2.07266L1.75939 6.14766C1.73283 6.17422 1.71876 6.21016 1.71876 6.24766C1.71876 6.28516 1.73283 6.32109 1.75939 6.34766L2.33595 6.92422C2.36231 6.95046 2.39798 6.96519 2.43517 6.96519C2.47236 6.96519 2.50804 6.95046 2.53439 6.92422L6.61251 2.84922C7.11877 2.34297 7.7922 2.06484 8.50783 2.06484C9.22345 2.06484 9.89689 2.34297 10.4016 2.84922C10.9078 3.35547 11.186 4.02891 11.186 4.74297C11.186 5.45859 10.9078 6.13047 10.4016 6.63672L6.24533 10.7914L5.57189 11.4648C4.9422 12.0945 3.91876 12.0945 3.28908 11.4648C2.98439 11.1602 2.8172 10.7555 2.8172 10.3242C2.8172 9.89297 2.98439 9.48828 3.28908 9.18359L7.41252 5.06172C7.5172 4.95859 7.6547 4.90078 7.80158 4.90078H7.80314C7.95002 4.90078 8.08595 4.95859 8.18908 5.06172C8.29376 5.16641 8.35002 5.30391 8.35002 5.45078C8.35002 5.59609 8.2922 5.73359 8.18908 5.83672L4.81876 9.20391C4.7922 9.23047 4.77814 9.26641 4.77814 9.30391C4.77814 9.34141 4.7922 9.37734 4.81876 9.40391L5.39533 9.98047C5.42168 10.0067 5.45736 10.0214 5.49455 10.0214C5.53174 10.0214 5.56741 10.0067 5.59377 9.98047L8.96251 6.61172C9.27345 6.30078 9.44377 5.88828 9.44377 5.44922C9.44377 5.01016 9.27189 4.59609 8.96251 4.28672C8.32033 3.64453 7.27658 3.64609 6.63439 4.28672L6.23439 4.68828L2.51251 8.40859C2.25991 8.65972 2.05967 8.9585 1.92341 9.2876C1.78716 9.61671 1.7176 9.96959 1.71876 10.3258C1.71876 11.0492 2.00158 11.7289 2.51251 12.2398C3.0422 12.768 3.73595 13.032 4.4297 13.032C5.12345 13.032 5.8172 12.768 6.34533 12.2398L11.1766 7.41172C11.8875 6.69922 12.2813 5.75078 12.2813 4.74297C12.2828 3.73359 11.8891 2.78516 11.1766 2.07266Z" fill="#8C8C8C"/>
</svg>
