<svg width="14" height="14" viewBox="0 0 14 14" fill="none" xmlns="http://www.w3.org/2000/svg">

<path d="M11.0834 7.66939V3.00273C11.0834 2.36106 10.5584 1.83606 9.91671 1.83606H1.75004C1.10837 1.83606 0.583374 2.36106 0.583374 3.00273V7.66939C0.583374 8.31106 1.10837 8.83606 1.75004 8.83606H9.91671C10.5584 8.83606 11.0834 8.31106 11.0834 7.66939ZM9.91671 7.66939H1.75004V3.00273H9.91671V7.66939ZM5.83337 3.58606C4.86504 3.58606 4.08337 4.36773 4.08337 5.33606C4.08337 6.30439 4.86504 7.08606 5.83337 7.08606C6.80171 7.08606 7.58337 6.30439 7.58337 5.33606C7.58337 4.36773 6.80171 3.58606 5.83337 3.58606ZM13.4167 3.58606V10.0027C13.4167 10.6444 12.8917 11.1694 12.25 11.1694H2.33337C2.33337 10.5861 2.33337 10.6444 2.33337 10.0027H12.25V3.58606C12.8917 3.58606 12.8334 3.58606 13.4167 3.58606Z" fill="#262626"/>
</svg>
