<svg width="14" height="14" viewBox="0 0 14 14" fill="none" xmlns="http://www.w3.org/2000/svg">
<path d="M11.6665 1.16602H2.33317C1.74984 1.16602 1.1665 1.69102 1.1665 2.33268V4.08852C1.1665 4.50852 1.41734 4.87018 1.74984 5.07435V11.666C1.74984 12.3077 2.3915 12.8327 2.9165 12.8327H11.0832C11.6082 12.8327 12.2498 12.3077 12.2498 11.666V5.07435C12.5823 4.87018 12.8332 4.50852 12.8332 4.08852V2.33268C12.8332 1.69102 12.2498 1.16602 11.6665 1.16602ZM11.0832 11.666H2.9165V5.24935H11.0832V11.666ZM11.6665 4.08268H2.33317V2.33268H11.6665V4.08268Z" fill="#8C8C8C"/>
<path d="M8.75 7H5.25V8.16667H8.75V7Z" fill="black" fill-opacity="0.54"/>
</svg>
