<svg width="14" height="14" viewBox="0 0 14 14" fill="none" xmlns="http://www.w3.org/2000/svg">
<path d="M10.7391 2.07266C9.2672 0.600781 6.87033 0.600781 5.40001 2.07266L1.32189 6.14766C1.29533 6.17422 1.28126 6.21016 1.28126 6.24766C1.28126 6.28516 1.29533 6.32109 1.32189 6.34766L1.89845 6.92422C1.92481 6.95046 1.96048 6.96519 1.99767 6.96519C2.03486 6.96519 2.07054 6.95046 2.09689 6.92422L6.17502 2.84922C6.68127 2.34297 7.3547 2.06484 8.07033 2.06484C8.78595 2.06484 9.45939 2.34297 9.96408 2.84922C10.4703 3.35547 10.7485 4.02891 10.7485 4.74297C10.7485 5.45859 10.4703 6.13047 9.96408 6.63672L5.80783 10.7914L5.13439 11.4648C4.5047 12.0945 3.48126 12.0945 2.85158 11.4648C2.54689 11.1602 2.3797 10.7555 2.3797 10.3242C2.3797 9.89297 2.54689 9.48828 2.85158 9.18359L6.97502 5.06172C7.0797 4.95859 7.2172 4.90078 7.36408 4.90078H7.36564C7.51252 4.90078 7.64845 4.95859 7.75158 5.06172C7.85626 5.16641 7.91252 5.30391 7.91252 5.45078C7.91252 5.59609 7.8547 5.73359 7.75158 5.83672L4.38126 9.20391C4.3547 9.23047 4.34064 9.26641 4.34064 9.30391C4.34064 9.34141 4.3547 9.37734 4.38126 9.40391L4.95783 9.98047C4.98418 10.0067 5.01986 10.0214 5.05705 10.0214C5.09424 10.0214 5.12991 10.0067 5.15627 9.98047L8.52501 6.61172C8.83595 6.30078 9.00627 5.88828 9.00627 5.44922C9.00627 5.01016 8.83439 4.59609 8.52501 4.28672C7.88283 3.64453 6.83908 3.64609 6.19689 4.28672L5.79689 4.68828L2.07501 8.40859C1.82241 8.65972 1.62217 8.9585 1.48591 9.2876C1.34966 9.61671 1.2801 9.96959 1.28126 10.3258C1.28126 11.0492 1.56408 11.7289 2.07501 12.2398C2.6047 12.768 3.29845 13.032 3.9922 13.032C4.68595 13.032 5.3797 12.768 5.90783 12.2398L10.7391 7.41172C11.45 6.69922 11.8438 5.75078 11.8438 4.74297C11.8453 3.73359 11.4516 2.78516 10.7391 2.07266Z" fill="#262626"/>
</svg>
