<svg width="12" height="12" viewBox="0 0 12 12" fill="none" xmlns="http://www.w3.org/2000/svg">
<path d="M8.83962 2.06646V1.03119C8.83962 0.941456 8.7365 0.891902 8.66685 0.946813L2.62935 5.66244C2.57805 5.70233 2.53655 5.75341 2.50799 5.81179C2.47944 5.87016 2.4646 5.93429 2.4646 5.99927C2.4646 6.06425 2.47944 6.12838 2.50799 6.18675C2.53655 6.24512 2.57805 6.29621 2.62935 6.3361L8.66685 11.0517C8.73783 11.1066 8.83962 11.0571 8.83962 10.9673V9.93208C8.83962 9.86646 8.80882 9.80351 8.75792 9.76333L3.93649 5.99994L8.75792 2.23521C8.80882 2.19503 8.83962 2.13208 8.83962 2.06646Z" fill="#262626"/>
</svg>
