<svg width="14" height="14" viewBox="0 0 14 14" fill="none" xmlns="http://www.w3.org/2000/svg">

<path d="M6.99996 3.58602V1.25269H1.16663V11.7527H12.8333V3.58602H6.99996ZM3.49996 10.586H2.33329V9.41935H3.49996V10.586ZM3.49996 8.25269H2.33329V7.08602H3.49996V8.25269ZM3.49996 5.91935H2.33329V4.75269H3.49996V5.91935ZM3.49996 3.58602H2.33329V2.41935H3.49996V3.58602ZM5.83329 10.586H4.66663V9.41935H5.83329V10.586ZM5.83329 8.25269H4.66663V7.08602H5.83329V8.25269ZM5.83329 5.91935H4.66663V4.75269H5.83329V5.91935ZM5.83329 3.58602H4.66663V2.41935H5.83329V3.58602ZM11.6666 10.586H6.99996V9.41935H8.16663V8.25269H6.99996V7.08602H8.16663V5.91935H6.99996V4.75269H11.6666V10.586ZM10.5 5.91935H9.33329V7.08602H10.5V5.91935ZM10.5 8.25269H9.33329V9.41935H10.5V8.25269Z" fill="#262626"/>
</svg>
