<svg width="280" height="280" viewBox="0 0 280 280" fill="none" xmlns="http://www.w3.org/2000/svg">
<g clip-path="url(#clip0_4118_148449)">
<path d="M67.9569 228.017C46.2173 230.342 27.9553 201.418 21.5963 184.229C9.14674 150.616 0.860256 108.906 6.66278 72.9977C9.29578 56.6532 16.0124 39.5338 32.804 33.5226C60.7634 23.5073 82.5825 42.912 98.8574 62.7439C111.973 78.7207 127.174 83.9569 145.268 92.8395C174.787 107.336 188.171 132.424 185.438 166.245" stroke="#BAE7FF" stroke-width="1.55" stroke-linecap="round" stroke-linejoin="round"/>
<path d="M131.248 89.5904C125.595 102.328 123.091 112.334 124.82 125.657C125.982 134.56 119.584 151.689 123.538 159.31C129.798 171.392 156.763 167.885 163.649 158.495C167.355 153.438 169.312 142.032 170.684 135.822C174.141 120.203 176.725 103.292 176.466 87.3449C176.228 72.3716 157.568 64.731 145.566 72.3815C139.306 76.3757 134.239 82.844 131.248 89.5904Z" fill="#BAE7FF" stroke="black" stroke-width="1.55" stroke-linecap="round" stroke-linejoin="round"/>
<path d="M160.012 68.5962C167.683 71.3285 177.41 71.9048 181.742 79.9131C183.779 83.6788 187.783 88.8057 187.982 93.2072C188.23 98.7812 181.871 101.007 176.456 101.494" fill="#BAE7FF"/>
<path d="M160.012 68.5962C167.683 71.3285 177.41 71.9048 181.742 79.9131C183.779 83.6788 187.783 88.8057 187.982 93.2072C188.23 98.7812 181.871 101.007 176.456 101.494" stroke="black" stroke-width="1.55" stroke-linecap="round" stroke-linejoin="round"/>
<path d="M240.344 180.513C242.967 183.891 249.187 188.253 253.558 188.362C256.529 188.442 259.818 187.558 262.729 187.419C262.679 187.419 253.27 198.338 252.356 199.262C250.568 201.06 243.901 205.442 243.295 207.727C240.85 203.077 236.677 198.626 235.058 193.519" fill="white"/>
<path d="M240.344 180.513C242.967 183.891 249.187 188.253 253.558 188.362C256.529 188.442 259.818 187.558 262.729 187.419C262.679 187.419 253.27 198.338 252.356 199.262C250.568 201.06 243.901 205.442 243.295 207.727C240.85 203.077 236.677 198.626 235.058 193.519" stroke="#281000" stroke-width="1.55" stroke-miterlimit="10" stroke-linecap="round"/>
<path d="M265.263 184.21C261.726 185.422 258.675 185.442 255.059 185.76C255.009 186.743 254.949 187.806 255.118 188.75C255.178 189.088 259.003 188.363 259.43 188.293C257.274 188.631 256.221 190.797 254.86 192.208C253.578 193.539 252.008 194.93 250.538 196.083C248.65 197.563 246.554 198.795 244.626 200.226C244.189 200.554 239.449 203.694 239.648 204.161C240.274 205.442 243.185 211.642 245.232 210.182C247.448 208.592 249.663 206.992 251.959 205.522C253.658 204.429 255.724 202.094 257.731 201.697C257.364 200.951 256.817 200.176 256.42 199.451C256.4 199.411 259.45 196.908 259.738 196.669C264.686 192.556 269.625 188.442 274.573 184.339L273.052 181.547C272.963 181.378 265.769 184.031 265.273 184.2L265.263 184.21Z" fill="#131313"/>
<path d="M198.553 230.361C197.699 234.554 198.424 242.115 201.186 245.504C203.054 247.809 205.866 249.746 207.873 251.853C207.843 251.823 193.427 251.763 192.135 251.674C189.601 251.485 181.941 249.269 179.814 250.293C181.752 245.414 182.418 239.343 185.249 234.793" fill="white"/>
<path d="M198.553 230.361C197.699 234.554 198.424 242.115 201.186 245.504C203.054 247.809 205.866 249.746 207.873 251.853C207.843 251.823 193.427 251.763 192.135 251.674C189.601 251.485 181.941 249.269 179.814 250.293C181.752 245.414 182.418 239.343 185.249 234.793" stroke="#281000" stroke-width="1.55" stroke-miterlimit="10" stroke-linecap="round"/>
<path d="M211.947 251.694C208.728 249.796 206.731 247.491 204.138 244.947C203.353 245.553 202.508 246.189 201.902 246.934C201.683 247.203 204.714 249.637 205.052 249.915C203.392 248.504 201.067 249.1 199.11 248.991C197.262 248.882 195.195 248.594 193.357 248.226C191.002 247.749 188.707 246.964 186.362 246.428C185.826 246.308 180.361 244.749 180.133 245.196C179.566 246.507 176.744 252.747 179.189 253.353C181.842 254.009 184.494 254.645 187.108 255.43C189.045 256.016 192.165 256.056 193.765 257.327C194.092 256.562 194.321 255.648 194.609 254.873C194.619 254.833 198.514 255.529 198.882 255.589C205.221 256.672 211.56 257.755 217.899 258.838L219.031 255.877C219.101 255.698 212.404 251.962 211.957 251.694H211.947Z" fill="#131313"/>
<path d="M176.337 154.114C176.337 154.114 195.294 146.94 201.504 169.902L201.107 237.098C201.107 237.098 194.649 247.153 180.56 239.274L177.003 177.125L139.197 177.463L143.34 158.426L176.337 154.124V154.114Z" fill="white" stroke="#281000" stroke-width="1.55" stroke-miterlimit="10" stroke-linecap="round"/>
<path d="M150.315 129.513C150.315 132.354 152.62 134.65 155.452 134.65H206.343C209.185 134.65 211.48 132.345 211.48 129.513C211.48 126.671 209.175 124.376 206.343 124.376H155.452C152.61 124.376 150.315 126.681 150.315 129.513Z" fill="#131313"/>
<path d="M150.573 127.069C150.573 128.271 151.547 129.255 152.759 129.255H179.228C180.431 129.255 181.414 128.271 181.414 127.069C181.414 125.866 180.441 124.883 179.228 124.883H152.759C151.557 124.883 150.573 125.857 150.573 127.069Z" fill="white" stroke="black" stroke-width="1.55" stroke-linecap="round" stroke-linejoin="round"/>
<path d="M168.975 122.717C168.975 128.032 173.287 132.344 178.602 132.344H225.261C230.577 132.344 234.889 128.032 234.889 122.717L241.685 93.078C241.685 87.7623 237.373 83.4502 232.057 83.4502H185.399C180.083 83.4502 175.771 87.7623 175.771 93.078L168.975 122.717Z" fill="white" stroke="black" stroke-width="1.55" stroke-linecap="round" stroke-linejoin="round"/>
<path d="M171.349 125.101C171.349 130.417 175.661 134.729 180.977 134.729H227.636C232.951 134.729 237.263 130.417 237.263 125.101L244.06 95.4628C244.06 90.1471 239.747 85.835 234.432 85.835H187.773C182.457 85.835 178.145 90.1471 178.145 95.4628L171.349 125.101Z" fill="#131313"/>
<path d="M248.908 183.275C248.908 183.275 241.615 198.835 231.6 197.493C231.6 197.493 183.739 151.64 183.739 151.63C182.07 150.03 159.327 167.11 156.108 169.365C148.805 174.482 138.501 181.03 130.205 174.035C120.438 165.788 121.431 150.914 132.53 145.201C145.536 138.504 164.483 130.864 178.354 127.396C190.724 124.306 195.881 125.638 205.856 135.335C218.097 147.228 237.422 170.379 248.908 183.265V183.275Z" fill="white" stroke="#281000" stroke-width="1.55" stroke-miterlimit="10" stroke-linecap="round"/>
<path d="M163.937 163.563C171.061 159.847 176.506 153.08 185.359 154.203C193.804 155.276 199.368 162.023 201.504 169.912" fill="white"/>
<path d="M163.937 163.563C171.061 159.847 176.506 153.08 185.359 154.203C193.804 155.276 199.368 162.023 201.504 169.912" stroke="#281000" stroke-width="1.55" stroke-miterlimit="10" stroke-linecap="round"/>
<path d="M115.937 124.287C113.9 124.932 111.734 124.893 109.727 125.658" stroke="black" stroke-width="1.55" stroke-linecap="round" stroke-linejoin="round"/>
<path d="M146.848 117.848C147.414 116.984 148.02 116.149 148.735 115.414C150.703 113.387 153.405 112.105 156.018 111.141C158.592 110.197 161.642 109.75 164.275 110.744C165.815 111.33 168.547 113.417 167.812 115.354C166.809 117.957 164.335 114.549 163.202 114.082C162.188 113.665 160.897 113.287 159.834 113.625C161.563 115.364 162.944 116.636 164.186 118.802C164.772 119.835 165.199 121.097 164.255 122.11C163.738 122.677 162.457 123.124 162.208 121.942C162.427 122.995 161.404 124.306 160.261 123.909C159.089 123.501 158.244 121.047 157.429 120.143C156.535 119.15 155.124 118.543 153.793 118.394C154.955 118.524 156.664 121.067 157.25 121.942C158.155 123.293 158.949 125.161 157.548 126.482C156.336 127.625 156.058 125.499 155.392 124.525C154.697 123.501 153.912 122.905 152.889 122.299C153.177 122.468 152.074 125.658 151.955 125.966C151.567 126.999 151.16 128.042 150.713 129.056C149.928 130.834 148.636 132.553 146.917 133.537C145.079 134.59 142.992 134.004 141.264 134.739C134.855 137.451 127.84 138.574 120.915 138.803C115.421 138.981 106.637 139.647 101.749 136.696C89.3688 129.234 95.678 115.374 101.322 106.104C102.534 104.117 111.327 88.0405 114.457 89.7296C120.09 92.7799 125.028 97.1914 130.712 100.391C128.148 108.339 120.398 116.835 116.027 124.227L134.547 126.641C134.617 126.641 134.686 126.651 134.746 126.651C138.144 126.8 141.423 124.793 143.658 122.379C144.92 121.018 145.834 119.388 146.848 117.838V117.848Z" fill="white" stroke="black" stroke-width="1.55" stroke-linecap="round" stroke-linejoin="round"/>
<path d="M148.964 67.3543C137.846 67.0463 129.49 67.5133 120.369 74.9453C110.87 82.6754 106.27 95.0554 98.9966 104.614C99.7418 103.64 117.587 119.339 120.547 120.094C124.72 113.685 129.827 106.323 133.454 99.5762" fill="#BAE7FF"/>
<path d="M148.964 67.3543C137.846 67.0463 129.49 67.5133 120.369 74.9453C110.87 82.6754 106.27 95.0554 98.9966 104.614C99.7418 103.64 117.587 119.339 120.547 120.094C124.72 113.685 129.827 106.323 133.454 99.5762" stroke="black" stroke-width="1.55" stroke-linecap="round" stroke-linejoin="round"/>
<path d="M115.689 124.276C114.665 124.247 113.632 124.217 112.609 124.187" stroke="black" stroke-width="1.55" stroke-linecap="round" stroke-linejoin="round"/>
<path d="M162.586 122.886C162.119 120.571 159.327 115.434 156.426 115.583" stroke="black" stroke-width="1.55" stroke-linecap="round" stroke-linejoin="round"/>
<path d="M152.769 122.23C151.388 122.1 150.444 123.213 149.381 123.939" stroke="black" stroke-width="1.55" stroke-linecap="round" stroke-linejoin="round"/>
<path d="M145.119 73.8027C148.765 77.8267 156.932 77.9558 159.088 73.1568C161.453 67.8909 160.688 59.0281 161.354 53.1958C161.354 53.1958 146.609 51.5166 146.599 51.5166C147.901 51.6656 143.499 67.0264 143.37 68.4572C143.171 70.653 143.887 72.4415 145.119 73.8027Z" fill="white" stroke="black" stroke-width="1.55" stroke-linecap="round" stroke-linejoin="round"/>
<path d="M156.614 66.3905C158.363 66.5197 160.072 66.3508 161.672 65.9136C167.732 64.2841 172.392 58.9883 172.889 52.3711L173.535 43.7666C174.161 35.4007 167.882 28.1177 159.516 27.4917C151.15 26.8658 143.867 33.1452 143.241 41.5112L142.595 50.1156C142.168 55.8784 145.009 61.1245 149.55 64.0357" fill="white"/>
<path d="M156.614 66.3905C158.363 66.5197 160.072 66.3508 161.672 65.9136C167.732 64.2841 172.392 58.9883 172.889 52.3711L173.535 43.7666C174.161 35.4007 167.882 28.1177 159.516 27.4917C151.15 26.8658 143.867 33.1452 143.241 41.5112L142.595 50.1156C142.168 55.8784 145.009 61.1245 149.55 64.0357" stroke="black" stroke-width="1.55" stroke-linecap="round" stroke-linejoin="round"/>
<path d="M169.292 46.1414C169.233 46.9959 169.461 47.7113 169.819 47.7411C170.177 47.7709 170.515 47.0952 170.584 46.2408C170.644 45.3863 170.415 44.6709 170.057 44.6411C169.7 44.6113 169.362 45.2869 169.292 46.1414Z" fill="black" stroke="black" stroke-width="1.55" stroke-linecap="round" stroke-linejoin="round"/>
<path d="M156.565 45.4458C156.505 46.3002 156.783 47.0156 157.191 47.0554C157.608 47.0852 157.985 46.4195 158.055 45.565C158.115 44.7105 157.836 43.9951 157.419 43.9653C157.012 43.9355 156.624 44.6012 156.555 45.4557L156.565 45.4458Z" fill="black" stroke="black" stroke-width="1.55" stroke-linecap="round" stroke-linejoin="round"/>
<path d="M171.687 41.8986C170.992 40.9051 169.899 40.3586 168.687 40.3785" stroke="black" stroke-width="1.55" stroke-linecap="round" stroke-linejoin="round"/>
<path d="M161.264 45.8925C161.205 49.4197 159.247 52.2415 156.903 52.1918C154.558 52.1521 152.7 49.2608 152.769 45.7336C152.829 42.2063 154.786 39.3846 157.131 39.4342C159.476 39.474 161.334 42.3653 161.264 45.8925Z" stroke="black" stroke-width="1.55" stroke-linecap="round" stroke-linejoin="round"/>
<path d="M173.237 45.7338C173.177 49.261 171.22 52.0828 168.875 52.0331C166.53 51.9934 164.672 49.102 164.742 45.5748C164.801 42.0476 166.759 39.2258 169.104 39.2656C171.449 39.3053 173.307 42.1966 173.237 45.7238V45.7338Z" stroke="black" stroke-width="1.55" stroke-linecap="round" stroke-linejoin="round"/>
<path d="M154.438 40.9448C155.472 40.6765 156.406 40.3983 157.459 40.3486" stroke="black" stroke-width="1.55" stroke-linecap="round" stroke-linejoin="round"/>
<path d="M161.632 45.2667C162.645 45.1674 163.689 45.1077 164.702 45.1872" stroke="black" stroke-width="1.55" stroke-linecap="round" stroke-linejoin="round"/>
<path d="M145.288 44.6108L152.759 45.7435" stroke="black" stroke-width="1.55" stroke-linecap="round" stroke-linejoin="round"/>
<path d="M163.987 42.127L165.348 53.2948L162.248 52.4702" stroke="black" stroke-width="1.55" stroke-linecap="round" stroke-linejoin="round"/>
<path d="M164.066 35.5894C167.077 35.5199 173.784 36.9308 173.714 40.8952C175.989 34.6754 175.155 30.5619 170.972 25.7033C167.743 21.9674 161.642 19.9803 156.893 21.0633C154.011 21.719 151.686 22.7424 150.484 25.6139C150.414 25.7728 145.943 25.6139 145.347 25.7331C143.35 26.1107 141.949 27.0744 140.558 28.6542C137.756 31.8734 136.802 36.3644 137.597 40.5176C138.233 43.8064 139.535 45.0384 141.452 47.7211C140.528 46.4294 140.489 43.399 142.237 42.7432C144.731 41.8093 146.679 46.7076 146.41 48.5358C146.857 45.5452 147.871 42.6141 149.262 39.9513C150.693 37.209 152.888 34.6654 153.723 31.6449C156.167 35.8975 159.724 35.6987 164.056 35.5894H164.066Z" fill="#131313" stroke="#131313" stroke-width="1.55" stroke-linecap="round" stroke-linejoin="round"/>
<path d="M146.599 48.1086C146.828 46.5586 146.112 44.2535 144.711 43.4189C143.281 42.5644 140.677 42.9022 139.853 44.4621C138.561 46.9063 141.293 50.682 143.539 51.5662" fill="white"/>
<path d="M146.599 48.1086C146.828 46.5586 146.112 44.2535 144.711 43.4189C143.281 42.5644 140.677 42.9022 139.853 44.4621C138.561 46.9063 141.293 50.682 143.539 51.5662" stroke="black" stroke-width="1.55" stroke-linecap="round" stroke-linejoin="round"/>
<path d="M142.396 46.5884C143.122 46.9063 143.509 47.7807 143.658 48.5557" stroke="black" stroke-width="1.55" stroke-linecap="round" stroke-linejoin="round"/>
<path d="M158.5 57C158.78 59.01 162.14 59.76 163.72 59.08" stroke="black" stroke-width="1.34" stroke-linecap="round" stroke-linejoin="round"/>
<path d="M41.935 177.89H165.795C171.826 177.89 176.725 182.789 176.725 188.82V248.305C176.725 254.336 171.826 259.235 165.795 259.235H41.935C35.904 259.235 31.0056 254.336 31.0056 248.305V188.82C31.0056 182.789 35.904 177.89 41.935 177.89Z" fill="white" stroke="#281000" stroke-width="1.55" stroke-miterlimit="10" stroke-linecap="round"/>
<path d="M31.0056 188.293C31.0056 182.262 35.894 177.364 41.935 177.364H165.795C171.826 177.364 176.725 182.252 176.725 188.293" fill="#BAE7FF"/>
<path d="M31.0056 188.293C31.0056 182.262 35.894 177.364 41.935 177.364H165.795C171.826 177.364 176.725 182.252 176.725 188.293" stroke="black" stroke-width="1.55" stroke-linecap="round" stroke-linejoin="round"/>
<path d="M53.1823 151.858L57.9515 181.169H68.5033V178.983C68.5033 178.059 69.2485 177.314 70.1726 177.314C71.0966 177.314 71.8418 178.059 71.8418 178.983V181.169H74.3059L79.0751 151.858H53.1724H53.1823Z" fill="#131313"/>
<path d="M66.6255 148.52C68.4437 143.92 69.4473 138.763 72.2293 134.58C73.5408 132.603 80.0885 125.36 83.1786 128.102C88.7824 133.07 75.8559 149.285 72.3883 152.266" fill="#BAE7FF"/>
<path d="M66.6255 148.52C68.4437 143.92 69.4473 138.763 72.2293 134.58C73.5408 132.603 80.0885 125.36 83.1786 128.102C88.7824 133.07 75.8559 149.285 72.3883 152.266" stroke="black" stroke-width="1.55" stroke-linecap="round" stroke-linejoin="round"/>
<path d="M82.4732 130.685C80.9928 134.103 78.7473 136.686 76.8893 139.915C75.1307 142.966 73.3521 146.145 70.8384 148.659" fill="#2BD102"/>
<path d="M82.4732 130.685C80.9928 134.103 78.7473 136.686 76.8893 139.915C75.1307 142.966 73.3521 146.145 70.8384 148.659" stroke="black" stroke-width="1.36" stroke-linecap="round" stroke-linejoin="round"/>
<path d="M78.7373 131.688C78.787 132.98 79.1049 134.709 79.6315 135.911L78.7373 131.688Z" fill="#2BD102"/>
<path d="M78.7373 131.688C78.787 132.98 79.1049 134.709 79.6315 135.911" stroke="black" stroke-width="1.36" stroke-linecap="round" stroke-linejoin="round"/>
<path d="M79.7905 135.713C80.7444 135.613 81.6485 135.067 82.5229 134.749L79.7905 135.713Z" fill="#2BD102"/>
<path d="M79.7905 135.713C80.7444 135.613 81.6485 135.067 82.5229 134.749" stroke="black" stroke-width="1.36" stroke-linecap="round" stroke-linejoin="round"/>
<path d="M74.5642 135.256C74.5642 136.309 75.7565 139.31 76.5514 139.816L74.5642 135.256Z" fill="#2BD102"/>
<path d="M74.5642 135.256C74.5642 136.309 75.7565 139.31 76.5514 139.816" stroke="black" stroke-width="1.36" stroke-linecap="round" stroke-linejoin="round"/>
<path d="M76.9688 140.015C78.1511 140.045 79.6614 139.528 80.7245 139.141L76.9688 140.015Z" fill="#2BD102"/>
<path d="M76.9688 140.015C78.1511 140.045 79.6614 139.528 80.7245 139.141" stroke="black" stroke-width="1.36" stroke-linecap="round" stroke-linejoin="round"/>
<path d="M71.4346 140.532C72.5176 141.605 73.3224 143.373 74.3358 144.576L71.4346 140.532Z" fill="#2BD102"/>
<path d="M71.4346 140.532C72.5176 141.605 73.3224 143.373 74.3358 144.576" stroke="black" stroke-width="1.36" stroke-linecap="round" stroke-linejoin="round"/>
<path d="M74.4648 144.486C75.7168 144.695 77.5847 144.297 78.8267 144.079L74.4648 144.486Z" fill="#2BD102"/>
<path d="M74.4648 144.486C75.7168 144.695 77.5847 144.297 78.8267 144.079" stroke="black" stroke-width="1.36" stroke-linecap="round" stroke-linejoin="round"/>
<path d="M57.9417 152.047C54.802 148.222 50.778 144.854 48.4629 140.392C47.37 138.286 44.2004 129.056 48.0953 127.675C55.1597 125.181 63.0785 144.337 64.0025 148.818" fill="#BAE7FF"/>
<path d="M57.9417 152.047C54.802 148.222 50.778 144.854 48.4629 140.392C47.37 138.286 44.2004 129.056 48.0953 127.675C55.1597 125.181 63.0785 144.337 64.0025 148.818" stroke="black" stroke-width="1.55" stroke-linecap="round" stroke-linejoin="round"/>
<path d="M50.0227 129.542C52.298 132.493 53.4704 135.713 55.3881 138.902C57.2063 141.923 59.114 145.013 60.1076 148.43" fill="#2BD102"/>
<path d="M50.0227 129.542C52.298 132.493 53.4704 135.713 55.3881 138.902C57.2063 141.923 59.114 145.013 60.1076 148.43" stroke="black" stroke-width="1.36" stroke-linecap="round" stroke-linejoin="round"/>
<path d="M49.0986 133.308C50.2512 133.894 51.9204 134.451 53.2319 134.57L49.0986 133.308Z" fill="#2BD102"/>
<path d="M49.0986 133.308C50.2512 133.894 51.9204 134.451 53.2319 134.57" stroke="black" stroke-width="1.36" stroke-linecap="round" stroke-linejoin="round"/>
<path d="M53.1228 134.332C53.5004 133.447 53.4606 132.394 53.6097 131.48L53.1228 134.332Z" fill="#2BD102"/>
<path d="M53.1228 134.332C53.5004 133.447 53.4606 132.394 53.6097 131.48" stroke="black" stroke-width="1.36" stroke-linecap="round" stroke-linejoin="round"/>
<path d="M50.1917 138.684C51.1157 139.19 54.315 139.608 55.1397 139.151L50.1917 138.684Z" fill="#2BD102"/>
<path d="M50.1917 138.684C51.1157 139.19 54.315 139.608 55.1397 139.151" stroke="black" stroke-width="1.36" stroke-linecap="round" stroke-linejoin="round"/>
<path d="M55.5173 138.882C56.1135 137.859 56.3917 136.289 56.5705 135.176L55.5173 138.882Z" fill="#2BD102"/>
<path d="M55.5173 138.882C56.1135 137.859 56.3917 136.289 56.5705 135.176" stroke="black" stroke-width="1.36" stroke-linecap="round" stroke-linejoin="round"/>
<path d="M53.2917 143.979C54.7523 143.552 56.6898 143.701 58.2299 143.403L53.2917 143.979Z" fill="#2BD102"/>
<path d="M53.2917 143.979C54.7523 143.552 56.6898 143.701 58.2299 143.403" stroke="black" stroke-width="1.36" stroke-linecap="round" stroke-linejoin="round"/>
<path d="M58.2197 143.244C59.0047 142.25 59.5611 140.422 59.9784 139.23L58.2197 143.244Z" fill="#2BD102"/>
<path d="M58.2197 143.244C59.0047 142.25 59.5611 140.422 59.9784 139.23" stroke="black" stroke-width="1.36" stroke-linecap="round" stroke-linejoin="round"/>
<path d="M64.8569 150.666C62.1941 148.132 61.5681 141.694 61.0316 138.167C60.2665 133.089 60.2665 127.436 61.5482 122.448C62.363 119.269 64.6582 113.834 67.9867 118.305C71.0668 122.428 70.8283 128.251 70.5998 133.119C70.3812 138.008 69.944 144.744 67.8078 149.146" fill="#BAE7FF"/>
<path d="M64.8569 150.666C62.1941 148.132 61.5681 141.694 61.0316 138.167C60.2665 133.089 60.2665 127.436 61.5482 122.448C62.363 119.269 64.6582 113.834 67.9867 118.305C71.0668 122.428 70.8283 128.251 70.5998 133.119C70.3812 138.008 69.944 144.744 67.8078 149.146" stroke="black" stroke-width="1.55" stroke-linecap="round" stroke-linejoin="round"/>
<path d="M65.4929 122.697C65.3836 125.459 66.1685 128.211 66.1685 131.033C66.1685 134.143 66.397 137.253 66.4169 140.373C66.4368 143.184 66.6653 145.947 66.5759 148.719" fill="#2BD102"/>
<path d="M65.4929 122.697C65.3836 125.459 66.1685 128.211 66.1685 131.033C66.1685 134.143 66.397 137.253 66.4169 140.373C66.4368 143.184 66.6653 145.947 66.5759 148.719" stroke="black" stroke-width="1.36" stroke-linecap="round" stroke-linejoin="round"/>
<path d="M68.4934 123.939C67.8178 125.092 66.7845 126.006 66.1982 127.198L68.4934 123.939Z" fill="#2BD102"/>
<path d="M68.4934 123.939C67.8178 125.092 66.7845 126.006 66.1982 127.198" stroke="black" stroke-width="1.36" stroke-linecap="round" stroke-linejoin="round"/>
<path d="M62.5815 125.747C63.287 126.154 63.9726 126.522 64.6979 126.85C64.9363 126.959 65.2443 127.049 65.4431 127.148C65.8405 127.337 65.9498 127.327 65.8405 127.386" fill="#2BD102"/>
<path d="M62.5815 125.747C63.287 126.154 63.9726 126.522 64.6979 126.85C64.9363 126.959 65.2443 127.049 65.4431 127.148C65.8405 127.337 65.9498 127.327 65.8405 127.386" stroke="black" stroke-width="1.36" stroke-linecap="round" stroke-linejoin="round"/>
<path d="M66.4963 132.096C67.5098 130.894 68.4338 129.572 69.6162 128.539L66.4963 132.096Z" fill="#2BD102"/>
<path d="M66.4963 132.096C67.5098 130.894 68.4338 129.572 69.6162 128.539" stroke="black" stroke-width="1.36" stroke-linecap="round" stroke-linejoin="round"/>
<path d="M62.2935 130.298C62.979 131.361 65.0258 131.719 66.228 132.325L62.2935 130.298Z" fill="#2BD102"/>
<path d="M62.2935 130.298C62.979 131.361 65.0258 131.719 66.228 132.325" stroke="black" stroke-width="1.36" stroke-linecap="round" stroke-linejoin="round"/>
<path d="M66.5857 137.134C67.4402 135.862 68.3741 135.474 69.3478 134.411L66.5857 137.134Z" fill="#2BD102"/>
<path d="M66.5857 137.134C67.4402 135.862 68.3741 135.474 69.3478 134.411" stroke="black" stroke-width="1.36" stroke-linecap="round" stroke-linejoin="round"/>
<path d="M61.916 135.464C63.2872 136.249 64.7378 136.726 66.1089 137.511L61.916 135.464Z" fill="#2BD102"/>
<path d="M61.916 135.464C63.2872 136.249 64.7378 136.726 66.1089 137.511" stroke="black" stroke-width="1.36" stroke-linecap="round" stroke-linejoin="round"/>
<path d="M66.5759 141.197C67.5596 140.68 68.2253 139.677 69.1891 139.18L66.5759 141.197Z" fill="#2BD102"/>
<path d="M66.5759 141.197C67.5596 140.68 68.2253 139.677 69.1891 139.18" stroke="black" stroke-width="1.36" stroke-linecap="round" stroke-linejoin="round"/>
<path d="M62.3035 139.756C63.5951 140.502 65.0358 141.038 66.407 141.495L62.3035 139.756Z" fill="#2BD102"/>
<path d="M62.3035 139.756C63.5951 140.502 65.0358 141.038 66.407 141.495" stroke="black" stroke-width="1.36" stroke-linecap="round" stroke-linejoin="round"/>
<path d="M80.7941 149.812H51.4834V156.628H80.7941V149.812Z" fill="#131313"/>
<path d="M163.56 201.031H132.331V246.129H163.56V201.031Z" fill="#131313" stroke="black" stroke-width="1.55" stroke-linecap="round" stroke-linejoin="round"/>
<path d="M43.6738 205.273H76.0547" stroke="black" stroke-width="1.55" stroke-linecap="round" stroke-linejoin="round"/>
<path d="M43.6738 210.291H113.056" stroke="black" stroke-width="1.55" stroke-linecap="round" stroke-linejoin="round"/>
<path d="M43.0776 234.246H60.5945" stroke="black" stroke-width="1.55" stroke-linecap="round" stroke-linejoin="round"/>
<path d="M43.0776 238.867H60.5945" stroke="black" stroke-width="1.55" stroke-linecap="round" stroke-linejoin="round"/>
<path d="M43.0776 243.497H60.5945" stroke="black" stroke-width="1.55" stroke-linecap="round" stroke-linejoin="round"/>
<path d="M70.0632 234.246H87.5801" stroke="black" stroke-width="1.55" stroke-linecap="round" stroke-linejoin="round"/>
<path d="M70.0632 238.867H87.5801" stroke="black" stroke-width="1.55" stroke-linecap="round" stroke-linejoin="round"/>
<path d="M70.0632 243.497H87.5801" stroke="black" stroke-width="1.55" stroke-linecap="round" stroke-linejoin="round"/>
<path d="M95.509 234.246H113.026" stroke="black" stroke-width="1.55" stroke-linecap="round" stroke-linejoin="round"/>
<path d="M95.509 238.867H113.026" stroke="black" stroke-width="1.55" stroke-linecap="round" stroke-linejoin="round"/>
<path d="M95.509 243.497H113.026" stroke="black" stroke-width="1.55" stroke-linecap="round" stroke-linejoin="round"/>
<path d="M60.5449 219.293H43.5845V228.543H60.5449V219.293Z" fill="#BAE7FF" stroke="black" stroke-width="1.55" stroke-linecap="round" stroke-linejoin="round"/>
<path d="M87.0139 219.293H70.0535V228.543H87.0139V219.293Z" fill="#131313"/>
<path d="M112.976 219.293H96.0156V228.543H112.976V219.293Z" fill="#131313" stroke="black" stroke-width="1.55" stroke-linecap="round" stroke-linejoin="round"/>
<path d="M144.811 183.305C144.811 184.607 143.747 185.67 142.446 185.67C141.144 185.67 140.081 184.617 140.081 183.305C140.081 181.994 141.134 180.94 142.446 180.94C143.757 180.94 144.811 181.994 144.811 183.305Z" fill="white" stroke="#281000" stroke-width="1.55" stroke-miterlimit="10" stroke-linecap="round"/>
<path d="M153.584 183.305C153.584 184.607 152.521 185.67 151.219 185.67C149.918 185.67 148.854 184.617 148.854 183.305C148.854 181.994 149.908 180.94 151.219 180.94C152.531 180.94 153.584 181.994 153.584 183.305Z" fill="white" stroke="#281000" stroke-width="1.55" stroke-miterlimit="10" stroke-linecap="round"/>
<path d="M162.357 183.305C162.357 184.607 161.304 185.67 159.993 185.67C158.681 185.67 157.628 184.617 157.628 183.305C157.628 181.994 158.691 180.94 159.993 180.94C161.294 180.94 162.357 181.994 162.357 183.305Z" fill="white" stroke="#281000" stroke-width="1.55" stroke-miterlimit="10" stroke-linecap="round"/>
<path d="M236.608 25.7231H207.575C202.18 25.7231 197.818 30.0949 197.818 35.4801V62.6248L207.575 53.613H236.608C242.003 53.613 246.375 49.2413 246.375 43.856V35.4901C246.375 30.0949 242.003 25.7331 236.608 25.7331V25.7231Z" fill="#BAE7FF" stroke="black" stroke-width="1.55" stroke-linecap="round" stroke-linejoin="round"/>
<path d="M230.994 40.1895C230.994 41.4514 232.017 42.4748 233.279 42.4748C234.541 42.4748 235.564 41.4514 235.564 40.1895C235.564 38.9277 234.541 37.9043 233.279 37.9043C232.017 37.9043 230.994 38.9277 230.994 40.1895Z" fill="white" stroke="black" stroke-width="1.55" stroke-linecap="round" stroke-linejoin="round"/>
<path d="M219.806 40.1895C219.806 41.4514 220.83 42.4748 222.091 42.4748C223.353 42.4748 224.377 41.4514 224.377 40.1895C224.377 38.9277 223.353 37.9043 222.091 37.9043C220.83 37.9043 219.806 38.9277 219.806 40.1895Z" fill="white" stroke="black" stroke-width="1.55" stroke-linecap="round" stroke-linejoin="round"/>
<path d="M208.618 40.1895C208.618 41.4514 209.642 42.4748 210.904 42.4748C212.166 42.4748 213.189 41.4514 213.189 40.1895C213.189 38.9277 212.166 37.9043 210.904 37.9043C209.642 37.9043 208.618 38.9277 208.618 40.1895Z" fill="white" stroke="black" stroke-width="1.55" stroke-linecap="round" stroke-linejoin="round"/>
<path d="M24.8154 76.0381C25.666 76.0381 26.3555 75.3486 26.3555 74.4981C26.3555 73.6475 25.666 72.958 24.8154 72.958C23.9649 72.958 23.2754 73.6475 23.2754 74.4981C23.2754 75.3486 23.9649 76.0381 24.8154 76.0381Z" fill="#131313"/>
<path d="M33.4199 76.0381C34.2705 76.0381 34.96 75.3486 34.96 74.4981C34.96 73.6475 34.2705 72.958 33.4199 72.958C32.5694 72.958 31.8799 73.6475 31.8799 74.4981C31.8799 75.3486 32.5694 76.0381 33.4199 76.0381Z" fill="#131313"/>
<path d="M42.0344 76.0381C42.885 76.0381 43.5745 75.3486 43.5745 74.4981C43.5745 73.6475 42.885 72.958 42.0344 72.958C41.1839 72.958 40.4944 73.6475 40.4944 74.4981C40.4944 75.3486 41.1839 76.0381 42.0344 76.0381Z" fill="#131313"/>
<path d="M24.8154 86.4507C25.666 86.4507 26.3555 85.7612 26.3555 84.9107C26.3555 84.0601 25.666 83.3706 24.8154 83.3706C23.9649 83.3706 23.2754 84.0601 23.2754 84.9107C23.2754 85.7612 23.9649 86.4507 24.8154 86.4507Z" fill="#131313"/>
<path d="M33.4199 86.4507C34.2705 86.4507 34.96 85.7612 34.96 84.9107C34.96 84.0601 34.2705 83.3706 33.4199 83.3706C32.5694 83.3706 31.8799 84.0601 31.8799 84.9107C31.8799 85.7612 32.5694 86.4507 33.4199 86.4507Z" fill="#131313"/>
<path d="M42.0344 86.4507C42.885 86.4507 43.5745 85.7612 43.5745 84.9107C43.5745 84.0601 42.885 83.3706 42.0344 83.3706C41.1839 83.3706 40.4944 84.0601 40.4944 84.9107C40.4944 85.7612 41.1839 86.4507 42.0344 86.4507Z" fill="#131313"/>
<path d="M24.8154 96.8535C25.666 96.8535 26.3555 96.164 26.3555 95.3135C26.3555 94.4629 25.666 93.7734 24.8154 93.7734C23.9649 93.7734 23.2754 94.4629 23.2754 95.3135C23.2754 96.164 23.9649 96.8535 24.8154 96.8535Z" fill="#131313"/>
<path d="M33.4199 96.8535C34.2705 96.8535 34.96 96.164 34.96 95.3135C34.96 94.4629 34.2705 93.7734 33.4199 93.7734C32.5694 93.7734 31.8799 94.4629 31.8799 95.3135C31.8799 96.164 32.5694 96.8535 33.4199 96.8535Z" fill="#131313"/>
<path d="M42.0344 96.8535C42.885 96.8535 43.5745 96.164 43.5745 95.3135C43.5745 94.4629 42.885 93.7734 42.0344 93.7734C41.1839 93.7734 40.4944 94.4629 40.4944 95.3135C40.4944 96.164 41.1839 96.8535 42.0344 96.8535Z" fill="#131313"/>
<path d="M255.277 140.84C255.476 141.883 254.79 142.897 253.747 143.095C252.704 143.294 251.69 142.618 251.492 141.565C251.293 140.522 251.978 139.508 253.022 139.31C254.065 139.111 255.078 139.797 255.277 140.84Z" fill="white" stroke="black" stroke-width="1.55" stroke-linecap="round" stroke-linejoin="round"/>
<path d="M264.011 147.079C264.378 148.957 263.146 150.785 261.259 151.143C259.381 151.511 257.552 150.279 257.195 148.391C256.827 146.513 258.059 144.695 259.947 144.327C261.825 143.959 263.643 145.192 264.011 147.079Z" fill="#131313" stroke="black" stroke-width="1.55" stroke-miterlimit="10"/>
</g>
<defs>
<clipPath id="clip0_4118_148449">
<rect width="270.563" height="240" fill="white" transform="translate(4 20)"/>
</clipPath>
</defs>
</svg>
