<svg width="281" height="280" viewBox="0 0 281 280" fill="none" xmlns="http://www.w3.org/2000/svg">
<g clip-path="url(#clip0_4118_162431)">
<path d="M56.5501 92.6602C56.9801 97.8302 56.2201 104.19 58.5401 108.91C65.8801 108.28 72.3201 105.29 79.8901 105.2C86.0001 105.13 92.7201 104.91 93.8001 97.4602C94.4601 92.9502 95.2701 88.2002 95.6301 83.6102C96.3501 74.2402 95.6301 64.9402 87.8201 58.9302C80.6701 53.4302 68.3901 53.8402 60.8401 58.2002C55.1301 61.5002 57.2801 66.8602 56.9301 72.1802C56.4701 79.1302 55.9801 85.6602 56.5601 92.6502L56.5501 92.6602Z" fill="#D9D9D9" stroke="black" stroke-width="1.34" stroke-linecap="round" stroke-linejoin="round"/>
<path d="M68.8898 59C69.2098 59.32 69.6198 59.61 70.1298 59.87C73.0298 61.35 76.6198 59.59 77.7798 56.66C78.3798 55.15 77.8598 52.9 77.8598 51.3V44.29H67.6698V53C67.6698 55.32 67.3298 57.46 68.8798 58.99L68.8898 59Z" fill="white" stroke="black" stroke-width="1.34" stroke-linecap="round" stroke-linejoin="round"/>
<path d="M76.3601 51.6702C77.5601 51.5202 78.6801 51.1702 79.7001 50.6602C83.5601 48.7402 85.9701 44.5302 85.3901 40.0102L84.6501 34.1302C83.9301 28.4202 78.7101 24.3702 72.9901 25.1002C67.2801 25.8302 63.2301 31.0402 63.9501 36.7602L64.6901 42.6402C65.1901 46.5702 67.8201 49.7202 71.2701 51.0602" fill="white"/>
<path d="M76.3601 51.6702C77.5601 51.5202 78.6801 51.1702 79.7001 50.6602C83.5601 48.7402 85.9701 44.5302 85.3901 40.0102L84.6501 34.1302C83.9301 28.4202 78.7101 24.3702 72.9901 25.1002C67.2801 25.8302 63.2301 31.0402 63.9501 36.7602L64.6901 42.6402C65.1901 46.5702 67.8201 49.7202 71.2701 51.0602" stroke="black" stroke-width="1.34" stroke-linecap="round" stroke-linejoin="round"/>
<path d="M82.1201 36.3101C82.1901 36.8901 82.4501 37.3401 82.6901 37.3101C82.9301 37.2801 83.0701 36.7801 83.0001 36.2001C82.9301 35.6201 82.6701 35.1701 82.4301 35.2001C82.1901 35.2301 82.0501 35.7301 82.1201 36.3101Z" fill="black" stroke="black" stroke-width="1.34" stroke-linecap="round" stroke-linejoin="round"/>
<path d="M73.46 37.58C73.53 38.16 73.82 38.61 74.1 38.57C74.38 38.53 74.55 38.03 74.48 37.45C74.41 36.87 74.12 36.42 73.84 36.46C73.56 36.5 73.39 37 73.47 37.58H73.46Z" fill="black" stroke="black" stroke-width="1.34" stroke-linecap="round" stroke-linejoin="round"/>
<path d="M83.1499 33.1298C82.5499 32.5598 81.7299 32.3398 80.9199 32.5198" stroke="black" stroke-width="1.34" stroke-linecap="round" stroke-linejoin="round"/>
<path d="M74.2202 43.7402C74.5002 45.7502 77.8602 46.5002 79.4402 45.8202" stroke="black" stroke-width="1.34" stroke-linecap="round" stroke-linejoin="round"/>
<path d="M71.4199 34.8498C72.0799 34.5298 72.6699 34.2198 73.3699 34.0298" stroke="black" stroke-width="1.34" stroke-linecap="round" stroke-linejoin="round"/>
<path d="M78.0098 34.3301L80.4498 41.6601L78.2498 41.5301" stroke="black" stroke-width="1.34" stroke-linecap="round" stroke-linejoin="round"/>
<path d="M77.1601 29.9298C79.1801 29.4698 83.8801 29.4998 84.3701 32.1798C85.0501 27.6798 83.9301 25.0298 80.4501 22.3298C77.7701 20.2498 73.3901 19.7598 70.3401 21.1298C68.4901 21.9598 67.0701 22.9698 66.6501 25.0698C66.6301 25.1898 63.6001 25.6998 63.2101 25.8498C61.9201 26.3798 61.1001 27.2198 60.3901 28.4698C58.9401 31.0198 58.9101 34.1698 60.0201 36.8498C60.9001 38.9798 61.9401 39.6298 63.6001 41.1698C62.8001 40.4298 62.3601 38.3898 63.4501 37.7098C65.0001 36.7398 66.9801 39.7698 67.0501 41.0398C66.9401 38.9698 67.2201 36.8598 67.7901 34.8698C68.3801 32.8298 69.5101 30.8098 69.6501 28.6698C71.8801 31.1898 74.2401 30.5798 77.1401 29.9098L77.1601 29.9298Z" fill="#131313" stroke="#131313" stroke-width="1.34" stroke-linecap="round" stroke-linejoin="round"/>
<path d="M67.1201 40.7401C67.0601 39.6601 66.2701 38.2201 65.2101 37.8401C64.1301 37.4601 62.4301 38.0401 62.0801 39.2001C61.5401 41.0201 63.9001 43.1901 65.5301 43.4801" fill="white"/>
<path d="M67.1201 40.7401C67.0601 39.6601 66.2701 38.2201 65.2101 37.8401C64.1301 37.4601 62.4301 38.0401 62.0801 39.2001C61.5401 41.0201 63.9001 43.1901 65.5301 43.4801" stroke="black" stroke-width="1.34" stroke-linecap="round" stroke-linejoin="round"/>
<path d="M64.0898 40.29C64.6198 40.4 64.9998 40.94 65.1998 41.44" stroke="black" stroke-width="1.34" stroke-linecap="round" stroke-linejoin="round"/>
<path d="M255.88 86.73H48.7402C46.3598 86.73 44.4302 88.6596 44.4302 91.04V264.53C44.4302 266.91 46.3598 268.84 48.7402 268.84H255.88C258.261 268.84 260.19 266.91 260.19 264.53V91.04C260.19 88.6596 258.261 86.73 255.88 86.73Z" fill="white" stroke="black" stroke-width="1.63" stroke-linecap="round" stroke-linejoin="round"/>
<path d="M44.4302 98.0799V90.1699C44.4302 87.7899 46.3602 85.8599 48.7402 85.8599H255.89C258.27 85.8599 260.2 87.7899 260.2 90.1699V98.0799" fill="#131313"/>
<path d="M238.61 91.9099C238.61 93.1299 237.62 94.1299 236.39 94.1299C235.16 94.1299 234.17 93.1399 234.17 91.9099C234.17 90.6799 235.16 89.6899 236.39 89.6899C237.62 89.6899 238.61 90.6799 238.61 91.9099Z" fill="white" stroke="black" stroke-width="1.63" stroke-linecap="round" stroke-linejoin="round"/>
<path d="M246.84 91.9099C246.84 93.1299 245.85 94.1299 244.62 94.1299C243.39 94.1299 242.4 93.1399 242.4 91.9099C242.4 90.6799 243.39 89.6899 244.62 89.6899C245.85 89.6899 246.84 90.6799 246.84 91.9099Z" fill="white" stroke="black" stroke-width="1.63" stroke-linecap="round" stroke-linejoin="round"/>
<path d="M255.07 91.9099C255.07 93.1299 254.08 94.1299 252.85 94.1299C251.62 94.1299 250.63 93.1399 250.63 91.9099C250.63 90.6799 251.62 89.6899 252.85 89.6899C254.08 89.6899 255.07 90.6799 255.07 91.9099Z" fill="white" stroke="black" stroke-width="1.63" stroke-linecap="round" stroke-linejoin="round"/>
<path d="M88.6198 231.26C88.6198 232.55 87.5398 233.6 86.1998 233.6H71.4398C70.1098 233.6 69.0298 232.55 69.0298 231.26V216.98C69.0298 215.69 70.1098 214.64 71.4398 214.64H86.1998C87.5298 214.64 88.6198 215.69 88.6198 216.98V231.26Z" fill="white" stroke="black" stroke-width="1.63" stroke-linecap="round" stroke-linejoin="round"/>
<path d="M69.46 239.09H88.18" stroke="black" stroke-width="1.63" stroke-linecap="round" stroke-linejoin="round"/>
<path d="M69.46 244.03H88.18" stroke="black" stroke-width="1.63" stroke-linecap="round" stroke-linejoin="round"/>
<path d="M69.46 248.98H88.18" stroke="black" stroke-width="1.63" stroke-linecap="round" stroke-linejoin="round"/>
<path d="M127 231.26C127 232.55 125.92 233.6 124.59 233.6H109.83C108.5 233.6 107.42 232.55 107.42 231.26V216.98C107.42 215.69 108.5 214.64 109.83 214.64H124.59C125.92 214.64 127 215.69 127 216.98V231.26Z" fill="#D9D9D9" stroke="black" stroke-width="1.63" stroke-linecap="round" stroke-linejoin="round"/>
<path d="M107.85 239.09H126.57" stroke="black" stroke-width="1.63" stroke-linecap="round" stroke-linejoin="round"/>
<path d="M107.85 244.03H126.57" stroke="black" stroke-width="1.63" stroke-linecap="round" stroke-linejoin="round"/>
<path d="M107.85 248.98H126.57" stroke="black" stroke-width="1.63" stroke-linecap="round" stroke-linejoin="round"/>
<path d="M165.39 231.26C165.39 232.55 164.31 233.6 162.98 233.6H148.22C146.89 233.6 145.81 232.55 145.81 231.26V216.98C145.81 215.69 146.89 214.64 148.22 214.64H162.98C164.31 214.64 165.39 215.69 165.39 216.98V231.26Z" fill="#CCCCCC" stroke="black" stroke-width="1.63" stroke-linecap="round" stroke-linejoin="round"/>
<path d="M146.24 239.09H164.96" stroke="black" stroke-width="1.63" stroke-linecap="round" stroke-linejoin="round"/>
<path d="M146.24 244.03H164.96" stroke="black" stroke-width="1.63" stroke-linecap="round" stroke-linejoin="round"/>
<path d="M146.24 248.98H164.96" stroke="black" stroke-width="1.63" stroke-linecap="round" stroke-linejoin="round"/>
<path d="M203.78 231.26C203.78 232.55 202.7 233.6 201.37 233.6H186.61C185.28 233.6 184.2 232.55 184.2 231.26V216.98C184.2 215.69 185.28 214.64 186.61 214.64H201.37C202.7 214.64 203.78 215.69 203.78 216.98V231.26Z" fill="#131313"/>
<path d="M184.63 239.09H203.35" stroke="black" stroke-width="1.63" stroke-linecap="round" stroke-linejoin="round"/>
<path d="M184.63 244.03H203.35" stroke="black" stroke-width="1.63" stroke-linecap="round" stroke-linejoin="round"/>
<path d="M184.63 248.98H203.35" stroke="black" stroke-width="1.63" stroke-linecap="round" stroke-linejoin="round"/>
<path d="M204.21 124.78H68.71V191.24H204.21V124.78Z" fill="#131313"/>
<path d="M68.6201 112.14H93.9401" stroke="black" stroke-width="1.63" stroke-linecap="round" stroke-linejoin="round"/>
<path d="M68.1099 116.7H110.14" stroke="black" stroke-width="1.63" stroke-linecap="round" stroke-linejoin="round"/>
<path d="M67.8501 202.8H203.35" stroke="black" stroke-width="1.63" stroke-linecap="round" stroke-linejoin="round"/>
<path d="M239.8 258.18C239.55 259.94 240.16 261.47 239.07 262.67C236.98 264.97 225.9 266.78 225.34 268.78C226.61 264.21 232.31 261.21 232.09 256.22C231.55 243.77 229.72 231.43 227.68 219.15C227.34 217.08 222.7 189.59 224.39 189.46C227.2 189.25 230.01 188.99 232.82 188.82C234.12 188.74 246.44 189.05 246.22 191.27C243.94 213.57 242.98 236.07 239.8 258.18Z" fill="white" stroke="black" stroke-width="1.34" stroke-linecap="round" stroke-linejoin="round"/>
<path d="M227.38 264.21C226.88 264.54 227.66 265.51 227.95 265.71C228.78 266.28 229.46 265.66 230.26 265.26C232.41 264.18 234.45 262.86 236.53 261.61C238.22 260.6 239.76 260.32 239.56 257.87C242.08 257.85 239.37 271.51 239.24 271.52L237.82 271.62L238.23 266.11L220.64 275.68L219.4 273.91C220.43 272.62 221.47 271.32 222.5 270.03C223.96 268.2 225.49 265.49 227.38 264.22V264.21Z" fill="#131313"/>
<path d="M266.95 249.11C267.5 250.8 268.72 251.9 268.28 253.46C267.42 256.45 258.28 262.97 258.67 265.01C257.79 260.35 261.57 255.14 259.17 250.76C253.18 239.83 246.08 229.57 238.83 219.46C237.61 217.75 229.35 195.14 230.81 194.28C233.24 192.85 227.59 191.37 230.04 189.98C231.17 189.33 242.36 184.17 243.14 186.26C250.95 207.27 260.04 227.88 266.95 249.12V249.11Z" fill="white" stroke="black" stroke-width="1.34" stroke-linecap="round" stroke-linejoin="round"/>
<path d="M258.46 260.01C258.16 260.53 259.28 261.05 259.63 261.1C260.62 261.24 260.96 260.39 261.5 259.67C262.95 257.75 264.2 255.66 265.51 253.63C266.58 251.98 267.84 251.05 266.57 248.93C268.83 247.8 272.43 261.25 272.32 261.32L271.09 262.04L269.02 256.91L257.48 273.27L255.59 272.23C255.95 270.61 256.3 268.99 256.66 267.37C257.16 265.09 257.33 261.97 258.47 260L258.46 260.01Z" fill="#131313"/>
<path d="M263.36 250.84C263.23 251.79 263.14 252.75 263.07 253.71L263.36 250.84Z" fill="white"/>
<path d="M263.36 250.84C263.23 251.79 263.14 252.75 263.07 253.71" stroke="black" stroke-width="1.34" stroke-linecap="round" stroke-linejoin="round"/>
<path d="M237.3 258.11C237.38 257.14 237.58 256.16 237.87 255.24" stroke="black" stroke-width="1.34" stroke-linecap="round" stroke-linejoin="round"/>
<path d="M250.12 162.21C249.63 160.67 251.82 155.98 252.16 154.39C253.24 149.33 254.16 143.87 253.46 138.7C252.68 132.99 248.41 129.77 242.86 129.34C236.81 128.87 231.73 133.01 227.7 137.18C221.74 143.35 226.48 149.8 225.73 156.9C225.73 156.92 219.74 227.04 219.74 227.04C219.74 227.04 244.75 236.02 267.36 223.8C267.36 223.8 250.12 162.23 250.11 162.22L250.12 162.21Z" fill="#131313"/>
<path d="M271.8 172.85L231.44 142.81C234.14 134.3 231.34 124.65 223.78 119.02C216.61 113.68 207.2 113.48 199.95 117.76L215.78 129.55L214.67 139.08L205.86 142.88L190.03 131.1C188 139.27 190.9 148.22 198.07 153.56C205.63 159.19 215.68 159.11 223.05 154.07L263.41 184.11C266.52 186.42 270.92 185.78 273.23 182.67C275.55 179.56 274.9 175.16 271.79 172.85H271.8ZM266.65 181.16C265.04 181.06 263.82 179.69 263.92 178.08C264.02 176.47 265.39 175.25 267 175.35C268.6 175.45 269.83 176.82 269.73 178.43C269.63 180.04 268.25 181.26 266.65 181.16Z" fill="#D9D9D9" stroke="black" stroke-width="1.34" stroke-linecap="round" stroke-linejoin="round"/>
<path d="M249.26 160.59C250.38 160.84 251.5 161.05 252.63 161.22C253.61 161.37 254.52 161.53 255.51 161.44C252.79 157.76 249.8 153.98 247.87 149.74C249.18 152.62 254.47 145.94 255.69 145.48C258.53 144.41 262.84 149.29 263.98 151.34C266.88 156.59 275.38 167.24 266.15 171.54C260.78 174.04 254.04 168.92 248.97 167.66C246.81 167.13 244.56 167.8 242.35 166.97C241.47 166.64 240.82 165.85 239.85 165.74C239.24 165.67 238.15 165.86 237.59 166.06C236.23 166.53 237.24 166.17 237.11 166.89C236.66 169.51 233.78 166.69 234.65 165.44C234.38 165.83 234.06 166.94 233.42 166.66C232.61 166.32 233.25 162.68 233.84 162.15C233.12 162.78 232.9 164.18 231.81 164.5C231.03 162.43 233.55 158.95 235.42 158.3C237.79 157.48 239.31 157.19 241.59 158.15C244.02 159.17 246.61 159.98 249.24 160.57L249.26 160.59Z" fill="white" stroke="black" stroke-width="1.34" stroke-linecap="round" stroke-linejoin="round"/>
<path d="M234.6 165.76C235.41 163.5 235.5 162.33 238.13 162.45L234.6 165.76Z" fill="white"/>
<path d="M234.6 165.76C235.41 163.5 235.5 162.33 238.13 162.45" stroke="black" stroke-width="1.34" stroke-linecap="round" stroke-linejoin="round"/>
<path d="M233.45 162.62C234.42 160.81 236.13 160.04 238.24 160.28L233.45 162.62Z" fill="white"/>
<path d="M233.45 162.62C234.42 160.81 236.13 160.04 238.24 160.28" stroke="black" stroke-width="1.34" stroke-linecap="round" stroke-linejoin="round"/>
<path d="M237.29 135.67C238.38 124.66 250.28 129.52 254.87 133.97C255.78 134.85 266.43 146.06 265.19 146.79C260.13 149.78 255.74 154.03 250.65 156.87L245.61 150.91" fill="#131313"/>
<path d="M255.42 161.72C258.32 161.52 262.04 162.06 264.67 163.27L255.42 161.72Z" fill="white"/>
<path d="M255.42 161.72C258.32 161.52 262.04 162.06 264.67 163.27" stroke="black" stroke-width="1.34" stroke-linecap="round" stroke-linejoin="round"/>
<path d="M245.35 133.43C240.52 137.84 236.63 136.91 236.51 130.76C236.49 129.89 237.2 119.95 236.49 119.95C236.61 119.95 246.62 119.57 246.62 119.57C246.76 123.29 248.28 129.42 246.04 132.67C245.87 132.92 245.63 133.18 245.35 133.44V133.43Z" fill="white" stroke="black" stroke-width="1.34" stroke-linecap="round" stroke-linejoin="round"/>
<path d="M239.78 127.91C238.58 127.83 237.45 127.55 236.4 127.11C232.46 125.43 229.82 121.4 230.12 116.88L230.51 111C230.89 105.28 235.83 100.96 241.55 101.34C247.27 101.72 251.59 106.66 251.21 112.38L250.82 118.26C250.56 122.19 248.14 125.47 244.79 127.01" fill="white"/>
<path d="M239.78 127.91C238.58 127.83 237.45 127.55 236.4 127.11C232.46 125.43 229.82 121.4 230.12 116.88L230.51 111C230.89 105.28 235.83 100.96 241.55 101.34C247.27 101.72 251.59 106.66 251.21 112.38L250.82 118.26C250.56 122.19 248.14 125.47 244.79 127.01" stroke="black" stroke-width="1.34" stroke-linecap="round" stroke-linejoin="round"/>
<path d="M236.75 100.11C235.66 100.56 234.61 101.15 233.62 101.88C232.72 102.55 231.43 103.84 230.92 104.83C230.43 105.78 230.48 107.36 230.49 108.38C231.68 107.3 232.42 105.7 233.96 105.02C235.29 104.43 236.8 108.38 237.17 109.06C239.8 113.88 248.91 110.11 250.53 116.11C251.32 119.06 250.19 121.39 248.81 123.8C251.48 123.3 254.05 122.17 255.75 119.98C257.31 117.98 258.12 115.49 257.82 112.95C257.21 107.85 254.36 100.77 248.64 99.99C244.52 99.42 240.81 98.4601 236.77 100.12L236.75 100.11Z" fill="#131313"/>
<path d="M249.19 114.36C249.81 112.78 252.71 113.26 253.22 114.69C253.86 116.46 251.65 118.76 250.05 119.14" fill="white"/>
<path d="M249.19 114.36C249.81 112.78 252.71 113.26 253.22 114.69C253.86 116.46 251.65 118.76 250.05 119.14" stroke="black" stroke-width="1.34" stroke-linecap="round" stroke-linejoin="round"/>
<path d="M251.23 115.68C250.65 115.84 250.27 116.46 250.08 117.02" stroke="black" stroke-width="1.34" stroke-linecap="round" stroke-linejoin="round"/>
<path d="M233.16 113C233.12 113.58 232.89 114.04 232.65 114.03C232.41 114.01 232.24 113.53 232.28 112.94C232.32 112.36 232.55 111.89 232.79 111.91C233.03 111.93 233.2 112.41 233.16 113Z" fill="black" stroke="black" stroke-width="1.34" stroke-linecap="round" stroke-linejoin="round"/>
<path d="M241.83 113.76C241.79 114.34 241.53 114.8 241.25 114.78C240.97 114.76 240.77 114.27 240.81 113.69C240.85 113.11 241.11 112.65 241.39 112.67C241.67 112.69 241.87 113.18 241.83 113.76Z" fill="black" stroke="black" stroke-width="1.34" stroke-linecap="round" stroke-linejoin="round"/>
<path d="M231.95 109.91C232.51 109.3 233.31 109.04 234.13 109.17" stroke="black" stroke-width="1.34" stroke-linecap="round" stroke-linejoin="round"/>
<path d="M248.33 113.13C249.84 114.84 248.9 119.89 248 121.61" stroke="black" stroke-width="1.34" stroke-linecap="round" stroke-linejoin="round"/>
<path d="M253.28 110.84C256.73 109.94 262.35 109.27 265.79 110.62C269.03 111.9 271.77 115.47 270.5 119.03C269.62 121.5 267.13 123.65 267.3 126.42C267.4 128.09 268.86 128.9 269.19 130.25C265.56 131.71 261.65 127.23 261.93 123.79C262.08 121.92 263.03 120.25 262.54 118.33C261.91 115.84 259.11 114.8 257 113.92C255.46 113.28 252.11 113.15 251.54 111.4" fill="#131313"/>
<path d="M241.44 119.91C241.28 121.92 237.99 122.87 236.38 122.29" stroke="black" stroke-width="1.34" stroke-linecap="round" stroke-linejoin="round"/>
<path d="M231.66 121.81C231.74 122.16 232.1 122.38 232.45 122.3C232.8 122.22 233.02 121.86 232.94 121.51C232.86 121.16 232.5 120.94 232.15 121.02C231.8 121.1 231.57 121.46 231.66 121.81Z" fill="white"/>
<path d="M250.15 118.11C250.23 118.46 250.59 118.68 250.94 118.6C251.29 118.52 251.51 118.16 251.43 117.81C251.35 117.46 250.99 117.24 250.64 117.32C250.29 117.4 250.07 117.76 250.15 118.11Z" fill="white"/>
<path d="M237.09 114.03C234.44 114.12 233.72 117.19 236.43 117.76" stroke="black" stroke-width="1.34" stroke-linecap="round" stroke-linejoin="round"/>
<path d="M57.7302 84.0102C56.3802 84.8102 54.9902 85.7302 53.4502 85.9202C54.3502 85.8102 58.0102 79.0902 57.8002 77.9102C57.6302 76.9402 51.8802 71.1002 50.7402 70.7602C45.1602 69.0902 41.2202 83.6002 40.6402 87.4402C39.9302 92.1602 40.2502 97.6102 46.0702 98.3402C51.4602 99.0102 55.9002 92.6402 59.9702 90.1102C61.7002 89.0402 63.8602 88.9902 65.5502 87.6402C66.2302 87.1002 66.5702 86.2302 67.3902 85.8602C67.9002 85.6302 68.9002 85.4902 69.4502 85.5002C70.7702 85.5302 69.7902 85.5002 70.1002 86.0902C71.2302 88.2502 72.9502 84.9702 71.8402 84.1302C72.1902 84.3902 72.7802 85.2702 73.2602 84.8502C73.8702 84.3202 72.2902 81.3302 71.6202 81.0302C72.4202 81.3802 73.0102 82.5302 74.0502 82.5002C74.1502 80.4702 70.9702 78.1502 69.1502 78.1102C66.8602 78.0702 65.4402 78.2402 63.7202 79.7202C61.8902 81.2902 59.8602 82.7302 57.7302 83.9902V84.0102Z" fill="white" stroke="black" stroke-width="1.34" stroke-linecap="round" stroke-linejoin="round"/>
<path d="M71.98 84.3898C70.63 82.6398 70.23 81.6498 67.96 82.4998L71.98 84.3898Z" fill="white"/>
<path d="M71.98 84.3898C70.63 82.6398 70.23 81.6498 67.96 82.4998" stroke="black" stroke-width="1.34" stroke-linecap="round" stroke-linejoin="round"/>
<path d="M72.0998 81.33C70.7398 80.02 69.0298 79.84 67.2598 80.63L72.0998 81.33Z" fill="white"/>
<path d="M72.0998 81.33C70.7398 80.02 69.0298 79.84 67.2598 80.63" stroke="black" stroke-width="1.34" stroke-linecap="round" stroke-linejoin="round"/>
<path d="M67.1902 55.6001C59.9702 55.6001 54.8502 59.5201 49.8902 64.6501C49.1902 65.3701 43.1702 72.0501 44.0302 72.6101C48.6702 75.3501 52.7002 79.2501 57.3702 81.8501L62.0002 75.7101" fill="#D9D9D9"/>
<path d="M67.1902 55.6001C59.9702 55.6001 54.8502 59.5201 49.8902 64.6501C49.1902 65.3701 43.1702 72.0501 44.0302 72.6101C48.6702 75.3501 52.7002 79.2501 57.3702 81.8501L62.0002 75.7101" stroke="black" stroke-width="1.34" stroke-linecap="round" stroke-linejoin="round"/>
<path d="M53.43 86.1499C50.25 86.9799 47.55 88.3799 45.04 90.6999L53.43 86.1499Z" fill="white"/>
<path d="M53.43 86.1499C50.25 86.9799 47.55 88.3799 45.04 90.6999" stroke="black" stroke-width="1.34" stroke-linecap="round" stroke-linejoin="round"/>
<path d="M202.73 83.5C203.43 88.24 200.16 92.65 195.42 93.36L98.1302 107.78C93.3902 108.48 88.9802 105.21 88.2702 100.47L85.2902 80.39C84.5902 75.65 87.8602 71.24 92.6002 70.53L189.89 56.11C194.63 55.41 199.04 58.68 199.75 63.42L202.72 83.5H202.73Z" fill="white" stroke="#281000" stroke-width="1.63" stroke-miterlimit="10" stroke-linecap="round"/>
<path d="M85.2301 79.9798C84.5301 75.2398 87.8001 70.8298 92.5401 70.1198L189.83 55.6998C194.57 54.9998 198.98 58.2698 199.69 63.0098" fill="#CCCCCC"/>
<path d="M85.2301 79.9798C84.5301 75.2398 87.8001 70.8298 92.5401 70.1198L189.83 55.6998C194.57 54.9998 198.98 58.2698 199.69 63.0098" stroke="black" stroke-width="1.63" stroke-linecap="round" stroke-linejoin="round"/>
<path d="M112.893 82.9995L95.9775 85.5063L98.266 100.948L115.181 98.4408L112.893 82.9995Z" fill="#D9D9D9" stroke="black" stroke-width="1.63" stroke-linecap="round" stroke-linejoin="round"/>
<path d="M118.34 84.9299L150.44 80.1699" stroke="black" stroke-width="1.63" stroke-linecap="round" stroke-linejoin="round"/>
<path d="M119.6 93.4002L181.98 84.1602" stroke="black" stroke-width="1.63" stroke-linecap="round" stroke-linejoin="round"/>
<path d="M118.88 88.5598L135.84 86.0498" stroke="black" stroke-width="1.63" stroke-linecap="round" stroke-linejoin="round"/>
<path d="M143.1 84.97L160.06 82.46" stroke="black" stroke-width="1.63" stroke-linecap="round" stroke-linejoin="round"/>
<path d="M167.33 81.3801L184.29 78.8701" stroke="black" stroke-width="1.63" stroke-linecap="round" stroke-linejoin="round"/>
<path d="M246.83 83.0599C248.82 66.5699 247.18 44.4599 232.13 33.8999C223.92 28.1399 204.42 32.7599 209.94 45.9299C214.17 56.0199 228.1 48.0199 225.95 38.4299C216.31 -4.62014 138.14 -7.44014 136.43 43.2599" stroke="#D9D9D9" stroke-width="1.34" stroke-linecap="round" stroke-linejoin="round"/>
<path d="M243.42 83.3C243.67 81.34 245.46 79.95 247.42 80.2C249.38 80.45 250.77 82.24 250.52 84.21C250.27 86.17 248.48 87.56 246.51 87.31C244.55 87.06 243.16 85.27 243.41 83.3H243.42Z" fill="#D9D9D9" stroke="black" stroke-width="1.34" stroke-linecap="round" stroke-linejoin="round"/>
<path d="M20.23 156.39L7.79004 169.31" stroke="black" stroke-width="1.63" stroke-linecap="round" stroke-linejoin="round"/>
<path d="M33.1201 142.45L10.1301 153.84L15.2201 158.64L6.32007 167.9L9.26007 170.73L18.1901 161.45L23.4001 166.36L33.1201 142.45Z" fill="#D9D9D9" stroke="black" stroke-width="1.63" stroke-linecap="round" stroke-linejoin="round"/>
<path d="M106.44 67.1398C106.09 68.0898 105.67 68.9198 105.33 69.2898C104.49 70.1998 103.06 69.7898 102.5 68.7098C102.5 68.7098 100.87 71.4598 100.25 69.8098C100.25 69.8098 98.8501 72.2198 97.8901 69.5198L97.6101 67.2698C97.6101 67.2698 96.4701 70.2198 96.1401 66.8698C96.1401 66.8698 96.2301 63.3198 98.1801 63.9198C98.1801 63.9198 100.18 61.8598 100.91 63.4298C100.91 63.4298 103.08 60.7498 104.45 63.1298C105.28 62.3698 106.31 62.1398 106.93 63.2098C107.34 63.9198 106.97 65.6598 106.43 67.1298L106.44 67.1398Z" fill="white" stroke="black" stroke-width="1.34" stroke-linecap="round" stroke-linejoin="round"/>
<path d="M104.21 63.3198C104 64.9998 103.91 64.9398 103.49 66.5798C103.25 67.5198 102.49 68.1198 102.58 69.1798" fill="white"/>
<path d="M104.21 63.3198C104 64.9998 103.91 64.9398 103.49 66.5798C103.25 67.5198 102.49 68.1198 102.58 69.1798" stroke="black" stroke-width="1.34" stroke-linecap="round" stroke-linejoin="round"/>
<path d="M100.67 63.5498C100.09 65.5598 99.9102 67.6198 99.9402 69.7198L100.67 63.5498Z" fill="white"/>
<path d="M100.67 63.5498C100.09 65.5598 99.9102 67.6198 99.9402 69.7198" stroke="black" stroke-width="1.34" stroke-linecap="round" stroke-linejoin="round"/>
<path d="M98.3598 63.8301C98.1898 64.8401 97.6298 66.5501 97.7998 67.5301L98.3598 63.8301Z" fill="white"/>
<path d="M98.3598 63.8301C98.1898 64.8401 97.6298 66.5501 97.7998 67.5301" stroke="black" stroke-width="1.34" stroke-linecap="round" stroke-linejoin="round"/>
</g>
<defs>
<clipPath id="clip0_4118_162431">
<rect width="269.8" height="270.67" fill="white" transform="translate(5.5 5)"/>
</clipPath>
</defs>
</svg>
