<svg width="100" height="26" viewBox="0 0 100 26" fill="none" xmlns="http://www.w3.org/2000/svg">
<g clip-path="url(#clip0_2137_10111)">
<path d="M3.43141 4.19962C1.27536 6.54092 0.135258 9.48152 0.0111084 12.4566L5.85006 10.0379L3.43141 4.19897V4.19962Z" fill="#F152D9"/>
<path d="M4.19962 3.43141L10.0386 5.85006L12.4566 0.0111084C9.48152 0.134608 6.54027 1.27471 4.19897 3.43141H4.19962Z" fill="#F268DD"/>
<path d="M13.5435 0.0111084L15.9621 5.85006L21.8011 3.43141C19.4591 1.27536 16.5185 0.135258 13.5435 0.0111084Z" fill="#ED27CF"/>
<path d="M13.5434 0.0110904C13.1813 -0.00385957 12.8193 -0.00385957 12.4572 0.0110904L10.0386 5.85004H15.962L13.5434 0.0110904Z" fill="#F693E7"/>
<path d="M5.85004 10.0386L0.0110904 12.4566C-0.00385957 12.8187 -0.00385957 13.1807 0.0110904 13.5428L5.85004 15.9614V10.038V10.0386Z" fill="#F47DE2"/>
<path d="M10.0386 5.85005L4.1997 3.4314C3.9332 3.67645 3.6771 3.9332 3.4314 4.1997L5.85005 10.0386L10.0386 5.85005Z" fill="#F8A9EC"/>
<path d="M5.85006 15.9615L0.0111084 13.5435C0.134608 16.5185 1.27471 19.4598 3.43141 21.8011L5.85006 15.9621V15.9615Z" fill="#9D49F4"/>
<path d="M20.15 10.0386L22.5687 4.1997C22.3236 3.9332 22.0669 3.6771 21.8004 3.4314L15.9614 5.85005L20.15 10.0386Z" fill="#CEA4F9"/>
<path d="M20.15 10.0387L25.989 12.4573C25.8655 9.48226 24.7254 6.54101 22.5687 4.19971L20.15 10.0387Z" fill="#9D49F4"/>
<path d="M5.85005 15.9614L3.4314 21.8004C3.67645 22.0669 3.9332 22.323 4.1997 22.5687L10.0386 20.15L5.85005 15.9614Z" fill="#CEA4F9"/>
<path d="M22.5687 21.8003C24.7254 19.459 25.8655 16.5184 25.989 13.5427L20.15 15.9614L22.5687 21.8003Z" fill="#7189FF"/>
<path d="M10.0387 20.15L4.19971 22.5687C6.54101 24.7254 9.48161 25.8655 12.4573 25.989L10.0387 20.15Z" fill="#617CFF"/>
<path d="M25.989 12.4566L20.15 10.038V15.9614L25.989 13.5428C26.0039 13.1807 26.0039 12.8187 25.989 12.4566Z" fill="#91A4FF"/>
<path d="M12.4566 25.989C12.8187 26.0039 13.1807 26.0039 13.5428 25.989L15.9614 20.15H10.038L12.4566 25.989Z" fill="#7ECDF2"/>
<path d="M15.9614 20.15L13.5427 25.989C16.5178 25.8655 19.459 24.7254 21.8003 22.5687L15.9614 20.15Z" fill="#46B7EC"/>
<path d="M15.9614 20.15L21.8004 22.5687C22.0669 22.3236 22.323 22.0669 22.5687 21.8004L20.15 15.9614L15.9614 20.15Z" fill="#A2DBF5"/>
</g>
<path d="M31.128 12.624C31.128 11.104 31.384 9.696 31.896 8.4C32.408 7.088 33.12 5.96 34.032 5.016C34.944 4.056 36.048 3.304 37.344 2.76C38.64 2.2 40.08 1.92 41.664 1.92C43.264 1.92 44.712 2.2 46.008 2.76C47.304 3.304 48.408 4.056 49.32 5.016C50.232 5.96 50.936 7.088 51.432 8.4C51.944 9.696 52.2 11.104 52.2 12.624C52.2 14.128 51.944 15.536 51.432 16.848C50.936 18.144 50.232 19.272 49.32 20.232C48.408 21.176 47.304 21.92 46.008 22.464C44.712 23.008 43.264 23.28 41.664 23.28C40.08 23.28 38.64 23.008 37.344 22.464C36.048 21.92 34.944 21.176 34.032 20.232C33.12 19.272 32.408 18.144 31.896 16.848C31.384 15.536 31.128 14.128 31.128 12.624ZM34.92 12.624C34.92 13.632 35.08 14.584 35.4 15.48C35.72 16.36 36.168 17.136 36.744 17.808C37.336 18.464 38.048 18.992 38.88 19.392C39.712 19.776 40.64 19.968 41.664 19.968C42.688 19.968 43.616 19.776 44.448 19.392C45.28 18.992 45.984 18.464 46.56 17.808C47.152 17.136 47.608 16.36 47.928 15.48C48.248 14.584 48.408 13.632 48.408 12.624C48.408 11.6 48.248 10.648 47.928 9.768C47.608 8.872 47.152 8.088 46.56 7.416C45.984 6.744 45.28 6.216 44.448 5.832C43.616 5.448 42.688 5.256 41.664 5.256C40.624 5.256 39.688 5.448 38.856 5.832C38.04 6.216 37.336 6.744 36.744 7.416C36.152 8.088 35.696 8.872 35.376 9.768C35.072 10.648 34.92 11.6 34.92 12.624ZM64.7678 5.472C63.8398 5.472 62.9838 5.648 62.1998 6C61.4158 6.352 60.7438 6.848 60.1838 7.488C59.6238 8.128 59.1838 8.88 58.8638 9.744C58.5438 10.592 58.3838 11.536 58.3838 12.576C58.3838 13.616 58.5438 14.568 58.8638 15.432C59.1998 16.296 59.6478 17.048 60.2078 17.688C60.7838 18.312 61.4638 18.8 62.2478 19.152C63.0478 19.504 63.9118 19.68 64.8398 19.68C66.5518 19.664 67.9598 19.192 69.0638 18.264C70.1678 17.32 70.8238 15.968 71.0318 14.208C70.8078 14.432 70.5518 14.584 70.2638 14.664C69.9918 14.744 69.7198 14.784 69.4478 14.784H65.7998V13.56C65.7998 12.968 65.9998 12.472 66.3998 12.072C66.7998 11.672 67.3118 11.472 67.9358 11.472H74.8718C74.9038 11.744 74.9278 12.016 74.9438 12.288C74.9598 12.56 74.9678 12.832 74.9678 13.104C74.9678 14.464 74.7038 15.76 74.1758 16.992C73.6478 18.208 72.9278 19.28 72.0158 20.208C71.1198 21.136 70.0558 21.864 68.8238 22.392C67.6078 22.936 66.3038 23.208 64.9118 23.208C63.4558 23.208 62.0878 22.952 60.8078 22.44C59.5438 21.928 58.4398 21.216 57.4958 20.304C56.5518 19.392 55.8078 18.288 55.2638 16.992C54.7198 15.696 54.4478 14.256 54.4478 12.672C54.4478 11.104 54.7118 9.664 55.2398 8.352C55.7838 7.024 56.5198 5.888 57.4478 4.944C58.3758 3.984 59.4558 3.24 60.6878 2.712C61.9358 2.168 63.2638 1.896 64.6718 1.896C66.2878 1.896 67.8078 2.2 69.2318 2.808C70.6558 3.416 71.8798 4.28 72.9038 5.4L72.0158 6.408C71.6478 6.92 71.2078 7.216 70.6958 7.296C70.1998 7.36 69.6958 7.192 69.1838 6.792C68.4638 6.344 67.7198 6.016 66.9518 5.808C66.1998 5.584 65.4718 5.472 64.7678 5.472ZM76.8311 12.624C76.8311 11.104 77.0871 9.696 77.5991 8.4C78.1111 7.088 78.8231 5.96 79.7351 5.016C80.6471 4.056 81.7511 3.304 83.0471 2.76C84.3431 2.2 85.7831 1.92 87.3671 1.92C88.9671 1.92 90.4151 2.2 91.7111 2.76C93.0071 3.304 94.1111 4.056 95.0231 5.016C95.9351 5.96 96.6391 7.088 97.1351 8.4C97.6471 9.696 97.9031 11.104 97.9031 12.624C97.9031 14.128 97.6471 15.536 97.1351 16.848C96.6391 18.144 95.9351 19.272 95.0231 20.232C94.1111 21.176 93.0071 21.92 91.7111 22.464C90.4151 23.008 88.9671 23.28 87.3671 23.28C85.7831 23.28 84.3431 23.008 83.0471 22.464C81.7511 21.92 80.6471 21.176 79.7351 20.232C78.8231 19.272 78.1111 18.144 77.5991 16.848C77.0871 15.536 76.8311 14.128 76.8311 12.624ZM80.6231 12.624C80.6231 13.632 80.7831 14.584 81.1031 15.48C81.4231 16.36 81.8711 17.136 82.4471 17.808C83.0391 18.464 83.7511 18.992 84.5831 19.392C85.4151 19.776 86.3431 19.968 87.3671 19.968C88.3911 19.968 89.3191 19.776 90.1511 19.392C90.9831 18.992 91.6871 18.464 92.2631 17.808C92.8551 17.136 93.3111 16.36 93.6311 15.48C93.9511 14.584 94.1111 13.632 94.1111 12.624C94.1111 11.6 93.9511 10.648 93.6311 9.768C93.3111 8.872 92.8551 8.088 92.2631 7.416C91.6871 6.744 90.9831 6.216 90.1511 5.832C89.3191 5.448 88.3911 5.256 87.3671 5.256C86.3271 5.256 85.3911 5.448 84.5591 5.832C83.7431 6.216 83.0391 6.744 82.4471 7.416C81.8551 8.088 81.3991 8.872 81.0791 9.768C80.7751 10.648 80.6231 11.6 80.6231 12.624Z" fill="black"/>
<defs>
<clipPath id="clip0_2137_10111">
<rect width="26" height="26" fill="white"/>
</clipPath>
</defs>
</svg>
